  0
SECTION
  2
HEADER
  9
$ACADVER
  1
AC1009
  9
$EXTMIN
 10
0.0
 20
0.0
 30
0.0
  9
$EXTMAX
 10
1000.0
 20
1000.0
 30
0.0
  9
$FILLMODE
 70
 0
  9
$SPLFRAME
 70
 1
  0
ENDSEC
  0
SECTION
  2
TABLES
  0
TABLE
  2
LAYER
 70
1
  0
LAYER
  2
0
 70
     0
 62
     7
  6
CONTINUOUS
  0
ENDTAB
  0
ENDSEC
  0
SECTION
  2
ENTITIES
  0
POLYLINE
  8
0
 62
     0
 66
     1
 10
0
 20
0
 30
0.0
 70
     1
 40
0
 41
0
  0
VERTEX
  8
0
 10
15
 20
391.764
 30
0.0
 40
0
 41
0
  0
VERTEX
  8
0
 10
9.40001
 20
391.764
 30
0.0
 40
0
 41
0
  0
VERTEX
  8
0
 10
9.40001
 20
389.014
 30
0.0
 40
0
 41
0
  0
VERTEX
  8
0
 10
15
 20
389.014
 30
0.0
 40
0
 41
0
  0
VERTEX
  8
0
 10
15
 20
11.0133
 30
0.0
 40
0
 41
0
  0
VERTEX
  8
0
 10
9.40001
 20
11.0133
 30
0.0
 40
0
 41
0
  0
VERTEX
  8
0
 10
9.40001
 20
8.26329
 30
0.0
 40
0
 41
0
  0
VERTEX
  8
0
 10
15
 20
8.26329
 30
0.0
 40
0
 41
0
  0
VERTEX
  8
0
 10
15
 20
5.51329
 30
0.0
 40
0
 41
0
  0
VERTEX
  8
0
 10
10
 20
5.51329
 30
0.0
 40
0
 41
0
  0
VERTEX
  8
0
 10
10
 20
0.0132921
 30
0.0
 40
0
 41
0
  0
VERTEX
  8
0
 10
5
 20
0.0132921
 30
0.0
 40
0
 41
0
  0
VERTEX
  8
0
 10
5
 20
5.51329
 30
0.0
 40
0
 41
0
  0
VERTEX
  8
0
 10
0
 20
5.51329
 30
0.0
 40
0
 41
0
  0
VERTEX
  8
0
 10
0
 20
394.514
 30
0.0
 40
0
 41
0
  0
VERTEX
  8
0
 10
5
 20
394.514
 30
0.0
 40
0
 41
0
  0
VERTEX
  8
0
 10
5
 20
400.014
 30
0.0
 40
0
 41
0
  0
VERTEX
  8
0
 10
10
 20
400.014
 30
0.0
 40
0
 41
0
  0
VERTEX
  8
0
 10
10
 20
394.514
 30
0.0
 40
0
 41
0
  0
VERTEX
  8
0
 10
15
 20
394.514
 30
0.0
 40
0
 41
0
  0
VERTEX
  8
0
 10
15
 20
391.764
 30
0.0
 40
0
 41
0
  0
SEQEND
 8
0
  0
POLYLINE
  8
0
 62
     0
 66
     1
 10
0
 20
0
 30
0.0
 70
     1
 40
0
 41
0
  0
VERTEX
  8
0
 10
10
 20
380.014
 30
0.0
 40
0
 41
0
  0
VERTEX
  8
0
 10
10
 20
379.95
 30
0.0
 40
0
 41
0
  0
VERTEX
  8
0
 10
9.98708
 20
379.758
 30
0.0
 40
0
 41
0
  0
VERTEX
  8
0
 10
9.94917
 20
379.51
 30
0.0
 40
0
 41
0
  0
VERTEX
  8
0
 10
9.88758
 20
379.271
 30
0.0
 40
0
 41
0
  0
VERTEX
  8
0
 10
9.8035
 20
379.04
 30
0.0
 40
0
 41
0
  0
VERTEX
  8
0
 10
9.69824
 20
378.822
 30
0.0
 40
0
 41
0
  0
VERTEX
  8
0
 10
9.57303
 20
378.617
 30
0.0
 40
0
 41
0
  0
VERTEX
  8
0
 10
9.4291
 20
378.424
 30
0.0
 40
0
 41
0
  0
VERTEX
  8
0
 10
9.26774
 20
378.246
 30
0.0
 40
0
 41
0
  0
VERTEX
  8
0
 10
9.09022
 20
378.085
 30
0.0
 40
0
 41
0
  0
VERTEX
  8
0
 10
8.89779
 20
377.94
 30
0.0
 40
0
 41
0
  0
VERTEX
  8
0
 10
8.69163
 20
377.815
 30
0.0
 40
0
 41
0
  0
VERTEX
  8
0
 10
8.4731
 20
377.71
 30
0.0
 40
0
 41
0
  0
VERTEX
  8
0
 10
8.24343
 20
377.626
 30
0.0
 40
0
 41
0
  0
VERTEX
  8
0
 10
8.00379
 20
377.565
 30
0.0
 40
0
 41
0
  0
VERTEX
  8
0
 10
7.75558
 20
377.526
 30
0.0
 40
0
 41
0
  0
VERTEX
  8
0
 10
7.56386
 20
377.514
 30
0.0
 40
0
 41
0
  0
VERTEX
  8
0
 10
7.5
 20
377.514
 30
0.0
 40
0
 41
0
  0
VERTEX
  8
0
 10
7.43608
 20
377.514
 30
0.0
 40
0
 41
0
  0
VERTEX
  8
0
 10
7.24436
 20
377.526
 30
0.0
 40
0
 41
0
  0
VERTEX
  8
0
 10
6.99615
 20
377.565
 30
0.0
 40
0
 41
0
  0
VERTEX
  8
0
 10
6.75657
 20
377.626
 30
0.0
 40
0
 41
0
  0
VERTEX
  8
0
 10
6.52686
 20
377.71
 30
0.0
 40
0
 41
0
  0
VERTEX
  8
0
 10
6.30832
 20
377.815
 30
0.0
 40
0
 41
0
  0
VERTEX
  8
0
 10
6.10221
 20
377.94
 30
0.0
 40
0
 41
0
  0
VERTEX
  8
0
 10
5.90972
 20
378.085
 30
0.0
 40
0
 41
0
  0
VERTEX
  8
0
 10
5.73221
 20
378.246
 30
0.0
 40
0
 41
0
  0
VERTEX
  8
0
 10
5.57086
 20
378.424
 30
0.0
 40
0
 41
0
  0
VERTEX
  8
0
 10
5.42692
 20
378.617
 30
0.0
 40
0
 41
0
  0
VERTEX
  8
0
 10
5.30171
 20
378.822
 30
0.0
 40
0
 41
0
  0
VERTEX
  8
0
 10
5.19646
 20
379.04
 30
0.0
 40
0
 41
0
  0
VERTEX
  8
0
 10
5.11236
 20
379.271
 30
0.0
 40
0
 41
0
  0
VERTEX
  8
0
 10
5.05078
 20
379.51
 30
0.0
 40
0
 41
0
  0
VERTEX
  8
0
 10
5.01286
 20
379.758
 30
0.0
 40
0
 41
0
  0
VERTEX
  8
0
 10
5
 20
379.95
 30
0.0
 40
0
 41
0
  0
VERTEX
  8
0
 10
5
 20
380.014
 30
0.0
 40
0
 41
0
  0
VERTEX
  8
0
 10
5
 20
380.078
 30
0.0
 40
0
 41
0
  0
VERTEX
  8
0
 10
5.01286
 20
380.269
 30
0.0
 40
0
 41
0
  0
VERTEX
  8
0
 10
5.05078
 20
380.518
 30
0.0
 40
0
 41
0
  0
VERTEX
  8
0
 10
5.11236
 20
380.757
 30
0.0
 40
0
 41
0
  0
VERTEX
  8
0
 10
5.19646
 20
380.987
 30
0.0
 40
0
 41
0
  0
VERTEX
  8
0
 10
5.30171
 20
381.206
 30
0.0
 40
0
 41
0
  0
VERTEX
  8
0
 10
5.42692
 20
381.411
 30
0.0
 40
0
 41
0
  0
VERTEX
  8
0
 10
5.57086
 20
381.604
 30
0.0
 40
0
 41
0
  0
VERTEX
  8
0
 10
5.73221
 20
381.782
 30
0.0
 40
0
 41
0
  0
VERTEX
  8
0
 10
5.90972
 20
381.943
 30
0.0
 40
0
 41
0
  0
VERTEX
  8
0
 10
6.10221
 20
382.088
 30
0.0
 40
0
 41
0
  0
VERTEX
  8
0
 10
6.30832
 20
382.213
 30
0.0
 40
0
 41
0
  0
VERTEX
  8
0
 10
6.52686
 20
382.318
 30
0.0
 40
0
 41
0
  0
VERTEX
  8
0
 10
6.75657
 20
382.401
 30
0.0
 40
0
 41
0
  0
VERTEX
  8
0
 10
6.99615
 20
382.463
 30
0.0
 40
0
 41
0
  0
VERTEX
  8
0
 10
7.24436
 20
382.501
 30
0.0
 40
0
 41
0
  0
VERTEX
  8
0
 10
7.43608
 20
382.514
 30
0.0
 40
0
 41
0
  0
VERTEX
  8
0
 10
7.5
 20
382.514
 30
0.0
 40
0
 41
0
  0
VERTEX
  8
0
 10
7.56386
 20
382.514
 30
0.0
 40
0
 41
0
  0
VERTEX
  8
0
 10
7.75558
 20
382.501
 30
0.0
 40
0
 41
0
  0
VERTEX
  8
0
 10
8.00379
 20
382.463
 30
0.0
 40
0
 41
0
  0
VERTEX
  8
0
 10
8.24343
 20
382.401
 30
0.0
 40
0
 41
0
  0
VERTEX
  8
0
 10
8.4731
 20
382.318
 30
0.0
 40
0
 41
0
  0
VERTEX
  8
0
 10
8.69163
 20
382.213
 30
0.0
 40
0
 41
0
  0
VERTEX
  8
0
 10
8.89779
 20
382.088
 30
0.0
 40
0
 41
0
  0
VERTEX
  8
0
 10
9.09022
 20
381.943
 30
0.0
 40
0
 41
0
  0
VERTEX
  8
0
 10
9.26774
 20
381.782
 30
0.0
 40
0
 41
0
  0
VERTEX
  8
0
 10
9.4291
 20
381.604
 30
0.0
 40
0
 41
0
  0
VERTEX
  8
0
 10
9.57303
 20
381.411
 30
0.0
 40
0
 41
0
  0
VERTEX
  8
0
 10
9.69824
 20
381.206
 30
0.0
 40
0
 41
0
  0
VERTEX
  8
0
 10
9.8035
 20
380.987
 30
0.0
 40
0
 41
0
  0
VERTEX
  8
0
 10
9.88758
 20
380.757
 30
0.0
 40
0
 41
0
  0
VERTEX
  8
0
 10
9.94917
 20
380.518
 30
0.0
 40
0
 41
0
  0
VERTEX
  8
0
 10
9.98708
 20
380.269
 30
0.0
 40
0
 41
0
  0
VERTEX
  8
0
 10
10
 20
380.078
 30
0.0
 40
0
 41
0
  0
VERTEX
  8
0
 10
10
 20
380.014
 30
0.0
 40
0
 41
0
  0
SEQEND
 8
0
  0
POLYLINE
  8
0
 62
     0
 66
     1
 10
0
 20
0
 30
0.0
 70
     1
 40
0
 41
0
  0
VERTEX
  8
0
 10
10
 20
200.014
 30
0.0
 40
0
 41
0
  0
VERTEX
  8
0
 10
10
 20
199.95
 30
0.0
 40
0
 41
0
  0
VERTEX
  8
0
 10
9.98708
 20
199.758
 30
0.0
 40
0
 41
0
  0
VERTEX
  8
0
 10
9.94917
 20
199.51
 30
0.0
 40
0
 41
0
  0
VERTEX
  8
0
 10
9.88758
 20
199.271
 30
0.0
 40
0
 41
0
  0
VERTEX
  8
0
 10
9.8035
 20
199.04
 30
0.0
 40
0
 41
0
  0
VERTEX
  8
0
 10
9.69824
 20
198.822
 30
0.0
 40
0
 41
0
  0
VERTEX
  8
0
 10
9.57303
 20
198.615
 30
0.0
 40
0
 41
0
  0
VERTEX
  8
0
 10
9.4291
 20
198.424
 30
0.0
 40
0
 41
0
  0
VERTEX
  8
0
 10
9.26774
 20
198.246
 30
0.0
 40
0
 41
0
  0
VERTEX
  8
0
 10
9.09022
 20
198.085
 30
0.0
 40
0
 41
0
  0
VERTEX
  8
0
 10
8.89779
 20
197.94
 30
0.0
 40
0
 41
0
  0
VERTEX
  8
0
 10
8.69163
 20
197.815
 30
0.0
 40
0
 41
0
  0
VERTEX
  8
0
 10
8.4731
 20
197.71
 30
0.0
 40
0
 41
0
  0
VERTEX
  8
0
 10
8.24343
 20
197.626
 30
0.0
 40
0
 41
0
  0
VERTEX
  8
0
 10
8.00379
 20
197.564
 30
0.0
 40
0
 41
0
  0
VERTEX
  8
0
 10
7.75558
 20
197.526
 30
0.0
 40
0
 41
0
  0
VERTEX
  8
0
 10
7.56386
 20
197.514
 30
0.0
 40
0
 41
0
  0
VERTEX
  8
0
 10
7.5
 20
197.514
 30
0.0
 40
0
 41
0
  0
VERTEX
  8
0
 10
7.43608
 20
197.514
 30
0.0
 40
0
 41
0
  0
VERTEX
  8
0
 10
7.24436
 20
197.526
 30
0.0
 40
0
 41
0
  0
VERTEX
  8
0
 10
6.99615
 20
197.564
 30
0.0
 40
0
 41
0
  0
VERTEX
  8
0
 10
6.75657
 20
197.626
 30
0.0
 40
0
 41
0
  0
VERTEX
  8
0
 10
6.52686
 20
197.71
 30
0.0
 40
0
 41
0
  0
VERTEX
  8
0
 10
6.30832
 20
197.815
 30
0.0
 40
0
 41
0
  0
VERTEX
  8
0
 10
6.10221
 20
197.94
 30
0.0
 40
0
 41
0
  0
VERTEX
  8
0
 10
5.90972
 20
198.085
 30
0.0
 40
0
 41
0
  0
VERTEX
  8
0
 10
5.73221
 20
198.246
 30
0.0
 40
0
 41
0
  0
VERTEX
  8
0
 10
5.57086
 20
198.424
 30
0.0
 40
0
 41
0
  0
VERTEX
  8
0
 10
5.42692
 20
198.615
 30
0.0
 40
0
 41
0
  0
VERTEX
  8
0
 10
5.30171
 20
198.822
 30
0.0
 40
0
 41
0
  0
VERTEX
  8
0
 10
5.19646
 20
199.04
 30
0.0
 40
0
 41
0
  0
VERTEX
  8
0
 10
5.11236
 20
199.271
 30
0.0
 40
0
 41
0
  0
VERTEX
  8
0
 10
5.05078
 20
199.51
 30
0.0
 40
0
 41
0
  0
VERTEX
  8
0
 10
5.01286
 20
199.758
 30
0.0
 40
0
 41
0
  0
VERTEX
  8
0
 10
5
 20
199.95
 30
0.0
 40
0
 41
0
  0
VERTEX
  8
0
 10
5
 20
200.014
 30
0.0
 40
0
 41
0
  0
VERTEX
  8
0
 10
5
 20
200.078
 30
0.0
 40
0
 41
0
  0
VERTEX
  8
0
 10
5.01286
 20
200.269
 30
0.0
 40
0
 41
0
  0
VERTEX
  8
0
 10
5.05078
 20
200.518
 30
0.0
 40
0
 41
0
  0
VERTEX
  8
0
 10
5.11236
 20
200.757
 30
0.0
 40
0
 41
0
  0
VERTEX
  8
0
 10
5.19646
 20
200.986
 30
0.0
 40
0
 41
0
  0
VERTEX
  8
0
 10
5.30171
 20
201.206
 30
0.0
 40
0
 41
0
  0
VERTEX
  8
0
 10
5.42692
 20
201.411
 30
0.0
 40
0
 41
0
  0
VERTEX
  8
0
 10
5.57086
 20
201.604
 30
0.0
 40
0
 41
0
  0
VERTEX
  8
0
 10
5.73221
 20
201.782
 30
0.0
 40
0
 41
0
  0
VERTEX
  8
0
 10
5.90972
 20
201.943
 30
0.0
 40
0
 41
0
  0
VERTEX
  8
0
 10
6.10221
 20
202.086
 30
0.0
 40
0
 41
0
  0
VERTEX
  8
0
 10
6.30832
 20
202.212
 30
0.0
 40
0
 41
0
  0
VERTEX
  8
0
 10
6.52686
 20
202.317
 30
0.0
 40
0
 41
0
  0
VERTEX
  8
0
 10
6.75657
 20
202.401
 30
0.0
 40
0
 41
0
  0
VERTEX
  8
0
 10
6.99615
 20
202.462
 30
0.0
 40
0
 41
0
  0
VERTEX
  8
0
 10
7.24436
 20
202.501
 30
0.0
 40
0
 41
0
  0
VERTEX
  8
0
 10
7.43608
 20
202.514
 30
0.0
 40
0
 41
0
  0
VERTEX
  8
0
 10
7.5
 20
202.514
 30
0.0
 40
0
 41
0
  0
VERTEX
  8
0
 10
7.56386
 20
202.514
 30
0.0
 40
0
 41
0
  0
VERTEX
  8
0
 10
7.75558
 20
202.501
 30
0.0
 40
0
 41
0
  0
VERTEX
  8
0
 10
8.00379
 20
202.462
 30
0.0
 40
0
 41
0
  0
VERTEX
  8
0
 10
8.24343
 20
202.401
 30
0.0
 40
0
 41
0
  0
VERTEX
  8
0
 10
8.4731
 20
202.317
 30
0.0
 40
0
 41
0
  0
VERTEX
  8
0
 10
8.69163
 20
202.212
 30
0.0
 40
0
 41
0
  0
VERTEX
  8
0
 10
8.89779
 20
202.086
 30
0.0
 40
0
 41
0
  0
VERTEX
  8
0
 10
9.09022
 20
201.943
 30
0.0
 40
0
 41
0
  0
VERTEX
  8
0
 10
9.26774
 20
201.782
 30
0.0
 40
0
 41
0
  0
VERTEX
  8
0
 10
9.4291
 20
201.604
 30
0.0
 40
0
 41
0
  0
VERTEX
  8
0
 10
9.57303
 20
201.411
 30
0.0
 40
0
 41
0
  0
VERTEX
  8
0
 10
9.69824
 20
201.206
 30
0.0
 40
0
 41
0
  0
VERTEX
  8
0
 10
9.8035
 20
200.986
 30
0.0
 40
0
 41
0
  0
VERTEX
  8
0
 10
9.88758
 20
200.757
 30
0.0
 40
0
 41
0
  0
VERTEX
  8
0
 10
9.94917
 20
200.518
 30
0.0
 40
0
 41
0
  0
VERTEX
  8
0
 10
9.98708
 20
200.269
 30
0.0
 40
0
 41
0
  0
VERTEX
  8
0
 10
10
 20
200.078
 30
0.0
 40
0
 41
0
  0
VERTEX
  8
0
 10
10
 20
200.014
 30
0.0
 40
0
 41
0
  0
SEQEND
 8
0
  0
POLYLINE
  8
0
 62
     0
 66
     1
 10
0
 20
0
 30
0.0
 70
     1
 40
0
 41
0
  0
VERTEX
  8
0
 10
10
 20
20.0133
 30
0.0
 40
0
 41
0
  0
VERTEX
  8
0
 10
10
 20
19.9494
 30
0.0
 40
0
 41
0
  0
VERTEX
  8
0
 10
9.98708
 20
19.7576
 30
0.0
 40
0
 41
0
  0
VERTEX
  8
0
 10
9.94917
 20
19.5094
 30
0.0
 40
0
 41
0
  0
VERTEX
  8
0
 10
9.88758
 20
19.2699
 30
0.0
 40
0
 41
0
  0
VERTEX
  8
0
 10
9.8035
 20
19.0401
 30
0.0
 40
0
 41
0
  0
VERTEX
  8
0
 10
9.69824
 20
18.8217
 30
0.0
 40
0
 41
0
  0
VERTEX
  8
0
 10
9.57303
 20
18.6156
 30
0.0
 40
0
 41
0
  0
VERTEX
  8
0
 10
9.4291
 20
18.4231
 30
0.0
 40
0
 41
0
  0
VERTEX
  8
0
 10
9.26774
 20
18.2456
 30
0.0
 40
0
 41
0
  0
VERTEX
  8
0
 10
9.09022
 20
18.0842
 30
0.0
 40
0
 41
0
  0
VERTEX
  8
0
 10
8.89779
 20
17.9403
 30
0.0
 40
0
 41
0
  0
VERTEX
  8
0
 10
8.69163
 20
17.815
 30
0.0
 40
0
 41
0
  0
VERTEX
  8
0
 10
8.4731
 20
17.7099
 30
0.0
 40
0
 41
0
  0
VERTEX
  8
0
 10
8.24343
 20
17.6257
 30
0.0
 40
0
 41
0
  0
VERTEX
  8
0
 10
8.00379
 20
17.5642
 30
0.0
 40
0
 41
0
  0
VERTEX
  8
0
 10
7.75558
 20
17.5263
 30
0.0
 40
0
 41
0
  0
VERTEX
  8
0
 10
7.56386
 20
17.5133
 30
0.0
 40
0
 41
0
  0
VERTEX
  8
0
 10
7.5
 20
17.5133
 30
0.0
 40
0
 41
0
  0
VERTEX
  8
0
 10
7.43608
 20
17.5133
 30
0.0
 40
0
 41
0
  0
VERTEX
  8
0
 10
7.24436
 20
17.5263
 30
0.0
 40
0
 41
0
  0
VERTEX
  8
0
 10
6.99615
 20
17.5642
 30
0.0
 40
0
 41
0
  0
VERTEX
  8
0
 10
6.75657
 20
17.6257
 30
0.0
 40
0
 41
0
  0
VERTEX
  8
0
 10
6.52686
 20
17.7099
 30
0.0
 40
0
 41
0
  0
VERTEX
  8
0
 10
6.30832
 20
17.815
 30
0.0
 40
0
 41
0
  0
VERTEX
  8
0
 10
6.10221
 20
17.9403
 30
0.0
 40
0
 41
0
  0
VERTEX
  8
0
 10
5.90972
 20
18.0842
 30
0.0
 40
0
 41
0
  0
VERTEX
  8
0
 10
5.73221
 20
18.2456
 30
0.0
 40
0
 41
0
  0
VERTEX
  8
0
 10
5.57086
 20
18.4231
 30
0.0
 40
0
 41
0
  0
VERTEX
  8
0
 10
5.42692
 20
18.6156
 30
0.0
 40
0
 41
0
  0
VERTEX
  8
0
 10
5.30171
 20
18.8217
 30
0.0
 40
0
 41
0
  0
VERTEX
  8
0
 10
5.19646
 20
19.0401
 30
0.0
 40
0
 41
0
  0
VERTEX
  8
0
 10
5.11236
 20
19.2699
 30
0.0
 40
0
 41
0
  0
VERTEX
  8
0
 10
5.05078
 20
19.5094
 30
0.0
 40
0
 41
0
  0
VERTEX
  8
0
 10
5.01286
 20
19.7576
 30
0.0
 40
0
 41
0
  0
VERTEX
  8
0
 10
5
 20
19.9494
 30
0.0
 40
0
 41
0
  0
VERTEX
  8
0
 10
5
 20
20.0133
 30
0.0
 40
0
 41
0
  0
VERTEX
  8
0
 10
5
 20
20.0772
 30
0.0
 40
0
 41
0
  0
VERTEX
  8
0
 10
5.01286
 20
20.2689
 30
0.0
 40
0
 41
0
  0
VERTEX
  8
0
 10
5.05078
 20
20.5171
 30
0.0
 40
0
 41
0
  0
VERTEX
  8
0
 10
5.11236
 20
20.7568
 30
0.0
 40
0
 41
0
  0
VERTEX
  8
0
 10
5.19646
 20
20.9864
 30
0.0
 40
0
 41
0
  0
VERTEX
  8
0
 10
5.30171
 20
21.205
 30
0.0
 40
0
 41
0
  0
VERTEX
  8
0
 10
5.42692
 20
21.4111
 30
0.0
 40
0
 41
0
  0
VERTEX
  8
0
 10
5.57086
 20
21.6036
 30
0.0
 40
0
 41
0
  0
VERTEX
  8
0
 10
5.73221
 20
21.7811
 30
0.0
 40
0
 41
0
  0
VERTEX
  8
0
 10
5.90972
 20
21.9425
 30
0.0
 40
0
 41
0
  0
VERTEX
  8
0
 10
6.10221
 20
22.0864
 30
0.0
 40
0
 41
0
  0
VERTEX
  8
0
 10
6.30832
 20
22.2115
 30
0.0
 40
0
 41
0
  0
VERTEX
  8
0
 10
6.52686
 20
22.3168
 30
0.0
 40
0
 41
0
  0
VERTEX
  8
0
 10
6.75657
 20
22.401
 30
0.0
 40
0
 41
0
  0
VERTEX
  8
0
 10
6.99615
 20
22.4625
 30
0.0
 40
0
 41
0
  0
VERTEX
  8
0
 10
7.24436
 20
22.5004
 30
0.0
 40
0
 41
0
  0
VERTEX
  8
0
 10
7.43608
 20
22.5133
 30
0.0
 40
0
 41
0
  0
VERTEX
  8
0
 10
7.5
 20
22.5133
 30
0.0
 40
0
 41
0
  0
VERTEX
  8
0
 10
7.56386
 20
22.5133
 30
0.0
 40
0
 41
0
  0
VERTEX
  8
0
 10
7.75558
 20
22.5004
 30
0.0
 40
0
 41
0
  0
VERTEX
  8
0
 10
8.00379
 20
22.4625
 30
0.0
 40
0
 41
0
  0
VERTEX
  8
0
 10
8.24343
 20
22.401
 30
0.0
 40
0
 41
0
  0
VERTEX
  8
0
 10
8.4731
 20
22.3168
 30
0.0
 40
0
 41
0
  0
VERTEX
  8
0
 10
8.69163
 20
22.2115
 30
0.0
 40
0
 41
0
  0
VERTEX
  8
0
 10
8.89779
 20
22.0864
 30
0.0
 40
0
 41
0
  0
VERTEX
  8
0
 10
9.09022
 20
21.9425
 30
0.0
 40
0
 41
0
  0
VERTEX
  8
0
 10
9.26774
 20
21.7811
 30
0.0
 40
0
 41
0
  0
VERTEX
  8
0
 10
9.4291
 20
21.6036
 30
0.0
 40
0
 41
0
  0
VERTEX
  8
0
 10
9.57303
 20
21.4111
 30
0.0
 40
0
 41
0
  0
VERTEX
  8
0
 10
9.69824
 20
21.205
 30
0.0
 40
0
 41
0
  0
VERTEX
  8
0
 10
9.8035
 20
20.9864
 30
0.0
 40
0
 41
0
  0
VERTEX
  8
0
 10
9.88758
 20
20.7568
 30
0.0
 40
0
 41
0
  0
VERTEX
  8
0
 10
9.94917
 20
20.5171
 30
0.0
 40
0
 41
0
  0
VERTEX
  8
0
 10
9.98708
 20
20.2689
 30
0.0
 40
0
 41
0
  0
VERTEX
  8
0
 10
10
 20
20.0772
 30
0.0
 40
0
 41
0
  0
VERTEX
  8
0
 10
10
 20
20.0133
 30
0.0
 40
0
 41
0
  0
SEQEND
 8
0
  0
POLYLINE
  8
0
 62
     0
 66
     1
 10
0
 20
0
 30
0.0
 70
     1
 40
0
 41
0
  0
VERTEX
  8
0
 10
30
 20
391.764
 30
0.0
 40
0
 41
0
  0
VERTEX
  8
0
 10
24.4
 20
391.764
 30
0.0
 40
0
 41
0
  0
VERTEX
  8
0
 10
24.4
 20
389.014
 30
0.0
 40
0
 41
0
  0
VERTEX
  8
0
 10
30
 20
389.014
 30
0.0
 40
0
 41
0
  0
VERTEX
  8
0
 10
30
 20
11.0133
 30
0.0
 40
0
 41
0
  0
VERTEX
  8
0
 10
24.4
 20
11.0133
 30
0.0
 40
0
 41
0
  0
VERTEX
  8
0
 10
24.4
 20
8.26329
 30
0.0
 40
0
 41
0
  0
VERTEX
  8
0
 10
30
 20
8.26329
 30
0.0
 40
0
 41
0
  0
VERTEX
  8
0
 10
30
 20
5.51329
 30
0.0
 40
0
 41
0
  0
VERTEX
  8
0
 10
25
 20
5.51329
 30
0.0
 40
0
 41
0
  0
VERTEX
  8
0
 10
25
 20
0.0132921
 30
0.0
 40
0
 41
0
  0
VERTEX
  8
0
 10
20
 20
0.0132921
 30
0.0
 40
0
 41
0
  0
VERTEX
  8
0
 10
20
 20
5.51329
 30
0.0
 40
0
 41
0
  0
VERTEX
  8
0
 10
15
 20
5.51329
 30
0.0
 40
0
 41
0
  0
VERTEX
  8
0
 10
15
 20
394.514
 30
0.0
 40
0
 41
0
  0
VERTEX
  8
0
 10
20
 20
394.514
 30
0.0
 40
0
 41
0
  0
VERTEX
  8
0
 10
20
 20
400.014
 30
0.0
 40
0
 41
0
  0
VERTEX
  8
0
 10
25
 20
400.014
 30
0.0
 40
0
 41
0
  0
VERTEX
  8
0
 10
25
 20
394.514
 30
0.0
 40
0
 41
0
  0
VERTEX
  8
0
 10
30
 20
394.514
 30
0.0
 40
0
 41
0
  0
VERTEX
  8
0
 10
30
 20
391.764
 30
0.0
 40
0
 41
0
  0
SEQEND
 8
0
  0
POLYLINE
  8
0
 62
     0
 66
     1
 10
0
 20
0
 30
0.0
 70
     1
 40
0
 41
0
  0
VERTEX
  8
0
 10
25
 20
380.014
 30
0.0
 40
0
 41
0
  0
VERTEX
  8
0
 10
25
 20
379.95
 30
0.0
 40
0
 41
0
  0
VERTEX
  8
0
 10
24.9871
 20
379.758
 30
0.0
 40
0
 41
0
  0
VERTEX
  8
0
 10
24.9492
 20
379.51
 30
0.0
 40
0
 41
0
  0
VERTEX
  8
0
 10
24.8876
 20
379.271
 30
0.0
 40
0
 41
0
  0
VERTEX
  8
0
 10
24.8036
 20
379.04
 30
0.0
 40
0
 41
0
  0
VERTEX
  8
0
 10
24.6983
 20
378.822
 30
0.0
 40
0
 41
0
  0
VERTEX
  8
0
 10
24.5731
 20
378.617
 30
0.0
 40
0
 41
0
  0
VERTEX
  8
0
 10
24.4292
 20
378.424
 30
0.0
 40
0
 41
0
  0
VERTEX
  8
0
 10
24.2678
 20
378.246
 30
0.0
 40
0
 41
0
  0
VERTEX
  8
0
 10
24.0903
 20
378.085
 30
0.0
 40
0
 41
0
  0
VERTEX
  8
0
 10
23.8978
 20
377.94
 30
0.0
 40
0
 41
0
  0
VERTEX
  8
0
 10
23.6917
 20
377.815
 30
0.0
 40
0
 41
0
  0
VERTEX
  8
0
 10
23.4732
 20
377.71
 30
0.0
 40
0
 41
0
  0
VERTEX
  8
0
 10
23.2435
 20
377.626
 30
0.0
 40
0
 41
0
  0
VERTEX
  8
0
 10
23.0039
 20
377.565
 30
0.0
 40
0
 41
0
  0
VERTEX
  8
0
 10
22.7557
 20
377.526
 30
0.0
 40
0
 41
0
  0
VERTEX
  8
0
 10
22.5639
 20
377.514
 30
0.0
 40
0
 41
0
  0
VERTEX
  8
0
 10
22.5
 20
377.514
 30
0.0
 40
0
 41
0
  0
VERTEX
  8
0
 10
22.4361
 20
377.514
 30
0.0
 40
0
 41
0
  0
VERTEX
  8
0
 10
22.2444
 20
377.526
 30
0.0
 40
0
 41
0
  0
VERTEX
  8
0
 10
21.9962
 20
377.565
 30
0.0
 40
0
 41
0
  0
VERTEX
  8
0
 10
21.7565
 20
377.626
 30
0.0
 40
0
 41
0
  0
VERTEX
  8
0
 10
21.5269
 20
377.71
 30
0.0
 40
0
 41
0
  0
VERTEX
  8
0
 10
21.3083
 20
377.815
 30
0.0
 40
0
 41
0
  0
VERTEX
  8
0
 10
21.1022
 20
377.94
 30
0.0
 40
0
 41
0
  0
VERTEX
  8
0
 10
20.9097
 20
378.085
 30
0.0
 40
0
 41
0
  0
VERTEX
  8
0
 10
20.7322
 20
378.246
 30
0.0
 40
0
 41
0
  0
VERTEX
  8
0
 10
20.571
 20
378.424
 30
0.0
 40
0
 41
0
  0
VERTEX
  8
0
 10
20.4269
 20
378.617
 30
0.0
 40
0
 41
0
  0
VERTEX
  8
0
 10
20.3018
 20
378.822
 30
0.0
 40
0
 41
0
  0
VERTEX
  8
0
 10
20.1965
 20
379.04
 30
0.0
 40
0
 41
0
  0
VERTEX
  8
0
 10
20.1124
 20
379.271
 30
0.0
 40
0
 41
0
  0
VERTEX
  8
0
 10
20.0508
 20
379.51
 30
0.0
 40
0
 41
0
  0
VERTEX
  8
0
 10
20.0129
 20
379.758
 30
0.0
 40
0
 41
0
  0
VERTEX
  8
0
 10
20
 20
379.95
 30
0.0
 40
0
 41
0
  0
VERTEX
  8
0
 10
20
 20
380.014
 30
0.0
 40
0
 41
0
  0
VERTEX
  8
0
 10
20
 20
380.078
 30
0.0
 40
0
 41
0
  0
VERTEX
  8
0
 10
20.0129
 20
380.269
 30
0.0
 40
0
 41
0
  0
VERTEX
  8
0
 10
20.0508
 20
380.518
 30
0.0
 40
0
 41
0
  0
VERTEX
  8
0
 10
20.1124
 20
380.757
 30
0.0
 40
0
 41
0
  0
VERTEX
  8
0
 10
20.1965
 20
380.987
 30
0.0
 40
0
 41
0
  0
VERTEX
  8
0
 10
20.3018
 20
381.206
 30
0.0
 40
0
 41
0
  0
VERTEX
  8
0
 10
20.4269
 20
381.411
 30
0.0
 40
0
 41
0
  0
VERTEX
  8
0
 10
20.571
 20
381.604
 30
0.0
 40
0
 41
0
  0
VERTEX
  8
0
 10
20.7322
 20
381.782
 30
0.0
 40
0
 41
0
  0
VERTEX
  8
0
 10
20.9097
 20
381.943
 30
0.0
 40
0
 41
0
  0
VERTEX
  8
0
 10
21.1022
 20
382.088
 30
0.0
 40
0
 41
0
  0
VERTEX
  8
0
 10
21.3083
 20
382.213
 30
0.0
 40
0
 41
0
  0
VERTEX
  8
0
 10
21.5269
 20
382.318
 30
0.0
 40
0
 41
0
  0
VERTEX
  8
0
 10
21.7565
 20
382.401
 30
0.0
 40
0
 41
0
  0
VERTEX
  8
0
 10
21.9962
 20
382.463
 30
0.0
 40
0
 41
0
  0
VERTEX
  8
0
 10
22.2444
 20
382.501
 30
0.0
 40
0
 41
0
  0
VERTEX
  8
0
 10
22.4361
 20
382.514
 30
0.0
 40
0
 41
0
  0
VERTEX
  8
0
 10
22.5
 20
382.514
 30
0.0
 40
0
 41
0
  0
VERTEX
  8
0
 10
22.5639
 20
382.514
 30
0.0
 40
0
 41
0
  0
VERTEX
  8
0
 10
22.7557
 20
382.501
 30
0.0
 40
0
 41
0
  0
VERTEX
  8
0
 10
23.0039
 20
382.463
 30
0.0
 40
0
 41
0
  0
VERTEX
  8
0
 10
23.2435
 20
382.401
 30
0.0
 40
0
 41
0
  0
VERTEX
  8
0
 10
23.4732
 20
382.318
 30
0.0
 40
0
 41
0
  0
VERTEX
  8
0
 10
23.6917
 20
382.213
 30
0.0
 40
0
 41
0
  0
VERTEX
  8
0
 10
23.8978
 20
382.088
 30
0.0
 40
0
 41
0
  0
VERTEX
  8
0
 10
24.0903
 20
381.943
 30
0.0
 40
0
 41
0
  0
VERTEX
  8
0
 10
24.2678
 20
381.782
 30
0.0
 40
0
 41
0
  0
VERTEX
  8
0
 10
24.4292
 20
381.604
 30
0.0
 40
0
 41
0
  0
VERTEX
  8
0
 10
24.5731
 20
381.411
 30
0.0
 40
0
 41
0
  0
VERTEX
  8
0
 10
24.6983
 20
381.206
 30
0.0
 40
0
 41
0
  0
VERTEX
  8
0
 10
24.8036
 20
380.987
 30
0.0
 40
0
 41
0
  0
VERTEX
  8
0
 10
24.8876
 20
380.757
 30
0.0
 40
0
 41
0
  0
VERTEX
  8
0
 10
24.9492
 20
380.518
 30
0.0
 40
0
 41
0
  0
VERTEX
  8
0
 10
24.9871
 20
380.269
 30
0.0
 40
0
 41
0
  0
VERTEX
  8
0
 10
25
 20
380.078
 30
0.0
 40
0
 41
0
  0
VERTEX
  8
0
 10
25
 20
380.014
 30
0.0
 40
0
 41
0
  0
SEQEND
 8
0
  0
POLYLINE
  8
0
 62
     0
 66
     1
 10
0
 20
0
 30
0.0
 70
     1
 40
0
 41
0
  0
VERTEX
  8
0
 10
25
 20
200.014
 30
0.0
 40
0
 41
0
  0
VERTEX
  8
0
 10
25
 20
199.95
 30
0.0
 40
0
 41
0
  0
VERTEX
  8
0
 10
24.9871
 20
199.758
 30
0.0
 40
0
 41
0
  0
VERTEX
  8
0
 10
24.9492
 20
199.51
 30
0.0
 40
0
 41
0
  0
VERTEX
  8
0
 10
24.8876
 20
199.271
 30
0.0
 40
0
 41
0
  0
VERTEX
  8
0
 10
24.8036
 20
199.04
 30
0.0
 40
0
 41
0
  0
VERTEX
  8
0
 10
24.6983
 20
198.822
 30
0.0
 40
0
 41
0
  0
VERTEX
  8
0
 10
24.5731
 20
198.615
 30
0.0
 40
0
 41
0
  0
VERTEX
  8
0
 10
24.4292
 20
198.424
 30
0.0
 40
0
 41
0
  0
VERTEX
  8
0
 10
24.2678
 20
198.246
 30
0.0
 40
0
 41
0
  0
VERTEX
  8
0
 10
24.0903
 20
198.085
 30
0.0
 40
0
 41
0
  0
VERTEX
  8
0
 10
23.8978
 20
197.94
 30
0.0
 40
0
 41
0
  0
VERTEX
  8
0
 10
23.6917
 20
197.815
 30
0.0
 40
0
 41
0
  0
VERTEX
  8
0
 10
23.4732
 20
197.71
 30
0.0
 40
0
 41
0
  0
VERTEX
  8
0
 10
23.2435
 20
197.626
 30
0.0
 40
0
 41
0
  0
VERTEX
  8
0
 10
23.0039
 20
197.564
 30
0.0
 40
0
 41
0
  0
VERTEX
  8
0
 10
22.7557
 20
197.526
 30
0.0
 40
0
 41
0
  0
VERTEX
  8
0
 10
22.5639
 20
197.514
 30
0.0
 40
0
 41
0
  0
VERTEX
  8
0
 10
22.5
 20
197.514
 30
0.0
 40
0
 41
0
  0
VERTEX
  8
0
 10
22.4361
 20
197.514
 30
0.0
 40
0
 41
0
  0
VERTEX
  8
0
 10
22.2444
 20
197.526
 30
0.0
 40
0
 41
0
  0
VERTEX
  8
0
 10
21.9962
 20
197.564
 30
0.0
 40
0
 41
0
  0
VERTEX
  8
0
 10
21.7565
 20
197.626
 30
0.0
 40
0
 41
0
  0
VERTEX
  8
0
 10
21.5269
 20
197.71
 30
0.0
 40
0
 41
0
  0
VERTEX
  8
0
 10
21.3083
 20
197.815
 30
0.0
 40
0
 41
0
  0
VERTEX
  8
0
 10
21.1022
 20
197.94
 30
0.0
 40
0
 41
0
  0
VERTEX
  8
0
 10
20.9097
 20
198.085
 30
0.0
 40
0
 41
0
  0
VERTEX
  8
0
 10
20.7322
 20
198.246
 30
0.0
 40
0
 41
0
  0
VERTEX
  8
0
 10
20.571
 20
198.424
 30
0.0
 40
0
 41
0
  0
VERTEX
  8
0
 10
20.4269
 20
198.615
 30
0.0
 40
0
 41
0
  0
VERTEX
  8
0
 10
20.3018
 20
198.822
 30
0.0
 40
0
 41
0
  0
VERTEX
  8
0
 10
20.1965
 20
199.04
 30
0.0
 40
0
 41
0
  0
VERTEX
  8
0
 10
20.1124
 20
199.271
 30
0.0
 40
0
 41
0
  0
VERTEX
  8
0
 10
20.0508
 20
199.51
 30
0.0
 40
0
 41
0
  0
VERTEX
  8
0
 10
20.0129
 20
199.758
 30
0.0
 40
0
 41
0
  0
VERTEX
  8
0
 10
20
 20
199.95
 30
0.0
 40
0
 41
0
  0
VERTEX
  8
0
 10
20
 20
200.014
 30
0.0
 40
0
 41
0
  0
VERTEX
  8
0
 10
20
 20
200.078
 30
0.0
 40
0
 41
0
  0
VERTEX
  8
0
 10
20.0129
 20
200.269
 30
0.0
 40
0
 41
0
  0
VERTEX
  8
0
 10
20.0508
 20
200.518
 30
0.0
 40
0
 41
0
  0
VERTEX
  8
0
 10
20.1124
 20
200.757
 30
0.0
 40
0
 41
0
  0
VERTEX
  8
0
 10
20.1965
 20
200.986
 30
0.0
 40
0
 41
0
  0
VERTEX
  8
0
 10
20.3018
 20
201.206
 30
0.0
 40
0
 41
0
  0
VERTEX
  8
0
 10
20.4269
 20
201.411
 30
0.0
 40
0
 41
0
  0
VERTEX
  8
0
 10
20.571
 20
201.604
 30
0.0
 40
0
 41
0
  0
VERTEX
  8
0
 10
20.7322
 20
201.782
 30
0.0
 40
0
 41
0
  0
VERTEX
  8
0
 10
20.9097
 20
201.943
 30
0.0
 40
0
 41
0
  0
VERTEX
  8
0
 10
21.1022
 20
202.086
 30
0.0
 40
0
 41
0
  0
VERTEX
  8
0
 10
21.3083
 20
202.212
 30
0.0
 40
0
 41
0
  0
VERTEX
  8
0
 10
21.5269
 20
202.317
 30
0.0
 40
0
 41
0
  0
VERTEX
  8
0
 10
21.7565
 20
202.401
 30
0.0
 40
0
 41
0
  0
VERTEX
  8
0
 10
21.9962
 20
202.462
 30
0.0
 40
0
 41
0
  0
VERTEX
  8
0
 10
22.2444
 20
202.501
 30
0.0
 40
0
 41
0
  0
VERTEX
  8
0
 10
22.4361
 20
202.514
 30
0.0
 40
0
 41
0
  0
VERTEX
  8
0
 10
22.5
 20
202.514
 30
0.0
 40
0
 41
0
  0
VERTEX
  8
0
 10
22.5639
 20
202.514
 30
0.0
 40
0
 41
0
  0
VERTEX
  8
0
 10
22.7557
 20
202.501
 30
0.0
 40
0
 41
0
  0
VERTEX
  8
0
 10
23.0039
 20
202.462
 30
0.0
 40
0
 41
0
  0
VERTEX
  8
0
 10
23.2435
 20
202.401
 30
0.0
 40
0
 41
0
  0
VERTEX
  8
0
 10
23.4732
 20
202.317
 30
0.0
 40
0
 41
0
  0
VERTEX
  8
0
 10
23.6917
 20
202.212
 30
0.0
 40
0
 41
0
  0
VERTEX
  8
0
 10
23.8978
 20
202.086
 30
0.0
 40
0
 41
0
  0
VERTEX
  8
0
 10
24.0903
 20
201.943
 30
0.0
 40
0
 41
0
  0
VERTEX
  8
0
 10
24.2678
 20
201.782
 30
0.0
 40
0
 41
0
  0
VERTEX
  8
0
 10
24.4292
 20
201.604
 30
0.0
 40
0
 41
0
  0
VERTEX
  8
0
 10
24.5731
 20
201.411
 30
0.0
 40
0
 41
0
  0
VERTEX
  8
0
 10
24.6983
 20
201.206
 30
0.0
 40
0
 41
0
  0
VERTEX
  8
0
 10
24.8036
 20
200.986
 30
0.0
 40
0
 41
0
  0
VERTEX
  8
0
 10
24.8876
 20
200.757
 30
0.0
 40
0
 41
0
  0
VERTEX
  8
0
 10
24.9492
 20
200.518
 30
0.0
 40
0
 41
0
  0
VERTEX
  8
0
 10
24.9871
 20
200.269
 30
0.0
 40
0
 41
0
  0
VERTEX
  8
0
 10
25
 20
200.078
 30
0.0
 40
0
 41
0
  0
VERTEX
  8
0
 10
25
 20
200.014
 30
0.0
 40
0
 41
0
  0
SEQEND
 8
0
  0
POLYLINE
  8
0
 62
     0
 66
     1
 10
0
 20
0
 30
0.0
 70
     1
 40
0
 41
0
  0
VERTEX
  8
0
 10
25
 20
20.0133
 30
0.0
 40
0
 41
0
  0
VERTEX
  8
0
 10
25
 20
19.9494
 30
0.0
 40
0
 41
0
  0
VERTEX
  8
0
 10
24.9871
 20
19.7576
 30
0.0
 40
0
 41
0
  0
VERTEX
  8
0
 10
24.9492
 20
19.5094
 30
0.0
 40
0
 41
0
  0
VERTEX
  8
0
 10
24.8876
 20
19.2699
 30
0.0
 40
0
 41
0
  0
VERTEX
  8
0
 10
24.8036
 20
19.0401
 30
0.0
 40
0
 41
0
  0
VERTEX
  8
0
 10
24.6983
 20
18.8217
 30
0.0
 40
0
 41
0
  0
VERTEX
  8
0
 10
24.5731
 20
18.6156
 30
0.0
 40
0
 41
0
  0
VERTEX
  8
0
 10
24.4292
 20
18.4231
 30
0.0
 40
0
 41
0
  0
VERTEX
  8
0
 10
24.2678
 20
18.2456
 30
0.0
 40
0
 41
0
  0
VERTEX
  8
0
 10
24.0903
 20
18.0842
 30
0.0
 40
0
 41
0
  0
VERTEX
  8
0
 10
23.8978
 20
17.9403
 30
0.0
 40
0
 41
0
  0
VERTEX
  8
0
 10
23.6917
 20
17.815
 30
0.0
 40
0
 41
0
  0
VERTEX
  8
0
 10
23.4732
 20
17.7099
 30
0.0
 40
0
 41
0
  0
VERTEX
  8
0
 10
23.2435
 20
17.6257
 30
0.0
 40
0
 41
0
  0
VERTEX
  8
0
 10
23.0039
 20
17.5642
 30
0.0
 40
0
 41
0
  0
VERTEX
  8
0
 10
22.7557
 20
17.5263
 30
0.0
 40
0
 41
0
  0
VERTEX
  8
0
 10
22.5639
 20
17.5133
 30
0.0
 40
0
 41
0
  0
VERTEX
  8
0
 10
22.5
 20
17.5133
 30
0.0
 40
0
 41
0
  0
VERTEX
  8
0
 10
22.4361
 20
17.5133
 30
0.0
 40
0
 41
0
  0
VERTEX
  8
0
 10
22.2444
 20
17.5263
 30
0.0
 40
0
 41
0
  0
VERTEX
  8
0
 10
21.9962
 20
17.5642
 30
0.0
 40
0
 41
0
  0
VERTEX
  8
0
 10
21.7565
 20
17.6257
 30
0.0
 40
0
 41
0
  0
VERTEX
  8
0
 10
21.5269
 20
17.7099
 30
0.0
 40
0
 41
0
  0
VERTEX
  8
0
 10
21.3083
 20
17.815
 30
0.0
 40
0
 41
0
  0
VERTEX
  8
0
 10
21.1022
 20
17.9403
 30
0.0
 40
0
 41
0
  0
VERTEX
  8
0
 10
20.9097
 20
18.0842
 30
0.0
 40
0
 41
0
  0
VERTEX
  8
0
 10
20.7322
 20
18.2456
 30
0.0
 40
0
 41
0
  0
VERTEX
  8
0
 10
20.571
 20
18.4231
 30
0.0
 40
0
 41
0
  0
VERTEX
  8
0
 10
20.4269
 20
18.6156
 30
0.0
 40
0
 41
0
  0
VERTEX
  8
0
 10
20.3018
 20
18.8217
 30
0.0
 40
0
 41
0
  0
VERTEX
  8
0
 10
20.1965
 20
19.0401
 30
0.0
 40
0
 41
0
  0
VERTEX
  8
0
 10
20.1124
 20
19.2699
 30
0.0
 40
0
 41
0
  0
VERTEX
  8
0
 10
20.0508
 20
19.5094
 30
0.0
 40
0
 41
0
  0
VERTEX
  8
0
 10
20.0129
 20
19.7576
 30
0.0
 40
0
 41
0
  0
VERTEX
  8
0
 10
20
 20
19.9494
 30
0.0
 40
0
 41
0
  0
VERTEX
  8
0
 10
20
 20
20.0133
 30
0.0
 40
0
 41
0
  0
VERTEX
  8
0
 10
20
 20
20.0772
 30
0.0
 40
0
 41
0
  0
VERTEX
  8
0
 10
20.0129
 20
20.2689
 30
0.0
 40
0
 41
0
  0
VERTEX
  8
0
 10
20.0508
 20
20.5171
 30
0.0
 40
0
 41
0
  0
VERTEX
  8
0
 10
20.1124
 20
20.7568
 30
0.0
 40
0
 41
0
  0
VERTEX
  8
0
 10
20.1965
 20
20.9864
 30
0.0
 40
0
 41
0
  0
VERTEX
  8
0
 10
20.3018
 20
21.205
 30
0.0
 40
0
 41
0
  0
VERTEX
  8
0
 10
20.4269
 20
21.4111
 30
0.0
 40
0
 41
0
  0
VERTEX
  8
0
 10
20.571
 20
21.6036
 30
0.0
 40
0
 41
0
  0
VERTEX
  8
0
 10
20.7322
 20
21.7811
 30
0.0
 40
0
 41
0
  0
VERTEX
  8
0
 10
20.9097
 20
21.9425
 30
0.0
 40
0
 41
0
  0
VERTEX
  8
0
 10
21.1022
 20
22.0864
 30
0.0
 40
0
 41
0
  0
VERTEX
  8
0
 10
21.3083
 20
22.2115
 30
0.0
 40
0
 41
0
  0
VERTEX
  8
0
 10
21.5269
 20
22.3168
 30
0.0
 40
0
 41
0
  0
VERTEX
  8
0
 10
21.7565
 20
22.401
 30
0.0
 40
0
 41
0
  0
VERTEX
  8
0
 10
21.9962
 20
22.4625
 30
0.0
 40
0
 41
0
  0
VERTEX
  8
0
 10
22.2444
 20
22.5004
 30
0.0
 40
0
 41
0
  0
VERTEX
  8
0
 10
22.4361
 20
22.5133
 30
0.0
 40
0
 41
0
  0
VERTEX
  8
0
 10
22.5
 20
22.5133
 30
0.0
 40
0
 41
0
  0
VERTEX
  8
0
 10
22.5639
 20
22.5133
 30
0.0
 40
0
 41
0
  0
VERTEX
  8
0
 10
22.7557
 20
22.5004
 30
0.0
 40
0
 41
0
  0
VERTEX
  8
0
 10
23.0039
 20
22.4625
 30
0.0
 40
0
 41
0
  0
VERTEX
  8
0
 10
23.2435
 20
22.401
 30
0.0
 40
0
 41
0
  0
VERTEX
  8
0
 10
23.4732
 20
22.3168
 30
0.0
 40
0
 41
0
  0
VERTEX
  8
0
 10
23.6917
 20
22.2115
 30
0.0
 40
0
 41
0
  0
VERTEX
  8
0
 10
23.8978
 20
22.0864
 30
0.0
 40
0
 41
0
  0
VERTEX
  8
0
 10
24.0903
 20
21.9425
 30
0.0
 40
0
 41
0
  0
VERTEX
  8
0
 10
24.2678
 20
21.7811
 30
0.0
 40
0
 41
0
  0
VERTEX
  8
0
 10
24.4292
 20
21.6036
 30
0.0
 40
0
 41
0
  0
VERTEX
  8
0
 10
24.5731
 20
21.4111
 30
0.0
 40
0
 41
0
  0
VERTEX
  8
0
 10
24.6983
 20
21.205
 30
0.0
 40
0
 41
0
  0
VERTEX
  8
0
 10
24.8036
 20
20.9864
 30
0.0
 40
0
 41
0
  0
VERTEX
  8
0
 10
24.8876
 20
20.7568
 30
0.0
 40
0
 41
0
  0
VERTEX
  8
0
 10
24.9492
 20
20.5171
 30
0.0
 40
0
 41
0
  0
VERTEX
  8
0
 10
24.9871
 20
20.2689
 30
0.0
 40
0
 41
0
  0
VERTEX
  8
0
 10
25
 20
20.0772
 30
0.0
 40
0
 41
0
  0
VERTEX
  8
0
 10
25
 20
20.0133
 30
0.0
 40
0
 41
0
  0
SEQEND
 8
0
  0
POLYLINE
  8
0
 62
     0
 66
     1
 10
0
 20
0
 30
0.0
 70
     1
 40
0
 41
0
  0
VERTEX
  8
0
 10
45
 20
391.764
 30
0.0
 40
0
 41
0
  0
VERTEX
  8
0
 10
39.4
 20
391.764
 30
0.0
 40
0
 41
0
  0
VERTEX
  8
0
 10
39.4
 20
389.014
 30
0.0
 40
0
 41
0
  0
VERTEX
  8
0
 10
45
 20
389.014
 30
0.0
 40
0
 41
0
  0
VERTEX
  8
0
 10
45
 20
11.0133
 30
0.0
 40
0
 41
0
  0
VERTEX
  8
0
 10
39.4
 20
11.0133
 30
0.0
 40
0
 41
0
  0
VERTEX
  8
0
 10
39.4
 20
8.26329
 30
0.0
 40
0
 41
0
  0
VERTEX
  8
0
 10
45
 20
8.26329
 30
0.0
 40
0
 41
0
  0
VERTEX
  8
0
 10
45
 20
5.51329
 30
0.0
 40
0
 41
0
  0
VERTEX
  8
0
 10
40
 20
5.51329
 30
0.0
 40
0
 41
0
  0
VERTEX
  8
0
 10
40
 20
0.0132921
 30
0.0
 40
0
 41
0
  0
VERTEX
  8
0
 10
35
 20
0.0132921
 30
0.0
 40
0
 41
0
  0
VERTEX
  8
0
 10
35
 20
5.51329
 30
0.0
 40
0
 41
0
  0
VERTEX
  8
0
 10
30
 20
5.51329
 30
0.0
 40
0
 41
0
  0
VERTEX
  8
0
 10
30
 20
394.514
 30
0.0
 40
0
 41
0
  0
VERTEX
  8
0
 10
35
 20
394.514
 30
0.0
 40
0
 41
0
  0
VERTEX
  8
0
 10
35
 20
400.014
 30
0.0
 40
0
 41
0
  0
VERTEX
  8
0
 10
40
 20
400.014
 30
0.0
 40
0
 41
0
  0
VERTEX
  8
0
 10
40
 20
394.514
 30
0.0
 40
0
 41
0
  0
VERTEX
  8
0
 10
45
 20
394.514
 30
0.0
 40
0
 41
0
  0
VERTEX
  8
0
 10
45
 20
391.764
 30
0.0
 40
0
 41
0
  0
SEQEND
 8
0
  0
POLYLINE
  8
0
 62
     0
 66
     1
 10
0
 20
0
 30
0.0
 70
     1
 40
0
 41
0
  0
VERTEX
  8
0
 10
40
 20
380.014
 30
0.0
 40
0
 41
0
  0
VERTEX
  8
0
 10
40
 20
379.95
 30
0.0
 40
0
 41
0
  0
VERTEX
  8
0
 10
39.9871
 20
379.758
 30
0.0
 40
0
 41
0
  0
VERTEX
  8
0
 10
39.9492
 20
379.51
 30
0.0
 40
0
 41
0
  0
VERTEX
  8
0
 10
39.8876
 20
379.271
 30
0.0
 40
0
 41
0
  0
VERTEX
  8
0
 10
39.8036
 20
379.04
 30
0.0
 40
0
 41
0
  0
VERTEX
  8
0
 10
39.6983
 20
378.822
 30
0.0
 40
0
 41
0
  0
VERTEX
  8
0
 10
39.5731
 20
378.617
 30
0.0
 40
0
 41
0
  0
VERTEX
  8
0
 10
39.4292
 20
378.424
 30
0.0
 40
0
 41
0
  0
VERTEX
  8
0
 10
39.2678
 20
378.246
 30
0.0
 40
0
 41
0
  0
VERTEX
  8
0
 10
39.0903
 20
378.085
 30
0.0
 40
0
 41
0
  0
VERTEX
  8
0
 10
38.8978
 20
377.94
 30
0.0
 40
0
 41
0
  0
VERTEX
  8
0
 10
38.6917
 20
377.815
 30
0.0
 40
0
 41
0
  0
VERTEX
  8
0
 10
38.4732
 20
377.71
 30
0.0
 40
0
 41
0
  0
VERTEX
  8
0
 10
38.2435
 20
377.626
 30
0.0
 40
0
 41
0
  0
VERTEX
  8
0
 10
38.0039
 20
377.565
 30
0.0
 40
0
 41
0
  0
VERTEX
  8
0
 10
37.7557
 20
377.526
 30
0.0
 40
0
 41
0
  0
VERTEX
  8
0
 10
37.5639
 20
377.514
 30
0.0
 40
0
 41
0
  0
VERTEX
  8
0
 10
37.5
 20
377.514
 30
0.0
 40
0
 41
0
  0
VERTEX
  8
0
 10
37.4361
 20
377.514
 30
0.0
 40
0
 41
0
  0
VERTEX
  8
0
 10
37.2444
 20
377.526
 30
0.0
 40
0
 41
0
  0
VERTEX
  8
0
 10
36.9963
 20
377.565
 30
0.0
 40
0
 41
0
  0
VERTEX
  8
0
 10
36.7567
 20
377.626
 30
0.0
 40
0
 41
0
  0
VERTEX
  8
0
 10
36.5269
 20
377.71
 30
0.0
 40
0
 41
0
  0
VERTEX
  8
0
 10
36.3083
 20
377.815
 30
0.0
 40
0
 41
0
  0
VERTEX
  8
0
 10
36.1022
 20
377.94
 30
0.0
 40
0
 41
0
  0
VERTEX
  8
0
 10
35.9097
 20
378.085
 30
0.0
 40
0
 41
0
  0
VERTEX
  8
0
 10
35.7322
 20
378.246
 30
0.0
 40
0
 41
0
  0
VERTEX
  8
0
 10
35.571
 20
378.424
 30
0.0
 40
0
 41
0
  0
VERTEX
  8
0
 10
35.4269
 20
378.617
 30
0.0
 40
0
 41
0
  0
VERTEX
  8
0
 10
35.3018
 20
378.822
 30
0.0
 40
0
 41
0
  0
VERTEX
  8
0
 10
35.1965
 20
379.04
 30
0.0
 40
0
 41
0
  0
VERTEX
  8
0
 10
35.1124
 20
379.271
 30
0.0
 40
0
 41
0
  0
VERTEX
  8
0
 10
35.0508
 20
379.51
 30
0.0
 40
0
 41
0
  0
VERTEX
  8
0
 10
35.0129
 20
379.758
 30
0.0
 40
0
 41
0
  0
VERTEX
  8
0
 10
35
 20
379.95
 30
0.0
 40
0
 41
0
  0
VERTEX
  8
0
 10
35
 20
380.014
 30
0.0
 40
0
 41
0
  0
VERTEX
  8
0
 10
35
 20
380.078
 30
0.0
 40
0
 41
0
  0
VERTEX
  8
0
 10
35.0129
 20
380.269
 30
0.0
 40
0
 41
0
  0
VERTEX
  8
0
 10
35.0508
 20
380.518
 30
0.0
 40
0
 41
0
  0
VERTEX
  8
0
 10
35.1124
 20
380.757
 30
0.0
 40
0
 41
0
  0
VERTEX
  8
0
 10
35.1965
 20
380.987
 30
0.0
 40
0
 41
0
  0
VERTEX
  8
0
 10
35.3018
 20
381.206
 30
0.0
 40
0
 41
0
  0
VERTEX
  8
0
 10
35.4269
 20
381.411
 30
0.0
 40
0
 41
0
  0
VERTEX
  8
0
 10
35.571
 20
381.604
 30
0.0
 40
0
 41
0
  0
VERTEX
  8
0
 10
35.7322
 20
381.782
 30
0.0
 40
0
 41
0
  0
VERTEX
  8
0
 10
35.9097
 20
381.943
 30
0.0
 40
0
 41
0
  0
VERTEX
  8
0
 10
36.1022
 20
382.088
 30
0.0
 40
0
 41
0
  0
VERTEX
  8
0
 10
36.3083
 20
382.213
 30
0.0
 40
0
 41
0
  0
VERTEX
  8
0
 10
36.5269
 20
382.318
 30
0.0
 40
0
 41
0
  0
VERTEX
  8
0
 10
36.7567
 20
382.401
 30
0.0
 40
0
 41
0
  0
VERTEX
  8
0
 10
36.9963
 20
382.463
 30
0.0
 40
0
 41
0
  0
VERTEX
  8
0
 10
37.2444
 20
382.501
 30
0.0
 40
0
 41
0
  0
VERTEX
  8
0
 10
37.4361
 20
382.514
 30
0.0
 40
0
 41
0
  0
VERTEX
  8
0
 10
37.5
 20
382.514
 30
0.0
 40
0
 41
0
  0
VERTEX
  8
0
 10
37.5639
 20
382.514
 30
0.0
 40
0
 41
0
  0
VERTEX
  8
0
 10
37.7557
 20
382.501
 30
0.0
 40
0
 41
0
  0
VERTEX
  8
0
 10
38.0039
 20
382.463
 30
0.0
 40
0
 41
0
  0
VERTEX
  8
0
 10
38.2435
 20
382.401
 30
0.0
 40
0
 41
0
  0
VERTEX
  8
0
 10
38.4732
 20
382.318
 30
0.0
 40
0
 41
0
  0
VERTEX
  8
0
 10
38.6917
 20
382.213
 30
0.0
 40
0
 41
0
  0
VERTEX
  8
0
 10
38.8978
 20
382.088
 30
0.0
 40
0
 41
0
  0
VERTEX
  8
0
 10
39.0903
 20
381.943
 30
0.0
 40
0
 41
0
  0
VERTEX
  8
0
 10
39.2678
 20
381.782
 30
0.0
 40
0
 41
0
  0
VERTEX
  8
0
 10
39.4292
 20
381.604
 30
0.0
 40
0
 41
0
  0
VERTEX
  8
0
 10
39.5731
 20
381.411
 30
0.0
 40
0
 41
0
  0
VERTEX
  8
0
 10
39.6983
 20
381.206
 30
0.0
 40
0
 41
0
  0
VERTEX
  8
0
 10
39.8036
 20
380.987
 30
0.0
 40
0
 41
0
  0
VERTEX
  8
0
 10
39.8876
 20
380.757
 30
0.0
 40
0
 41
0
  0
VERTEX
  8
0
 10
39.9492
 20
380.518
 30
0.0
 40
0
 41
0
  0
VERTEX
  8
0
 10
39.9871
 20
380.269
 30
0.0
 40
0
 41
0
  0
VERTEX
  8
0
 10
40
 20
380.078
 30
0.0
 40
0
 41
0
  0
VERTEX
  8
0
 10
40
 20
380.014
 30
0.0
 40
0
 41
0
  0
SEQEND
 8
0
  0
POLYLINE
  8
0
 62
     0
 66
     1
 10
0
 20
0
 30
0.0
 70
     1
 40
0
 41
0
  0
VERTEX
  8
0
 10
40
 20
200.014
 30
0.0
 40
0
 41
0
  0
VERTEX
  8
0
 10
40
 20
199.95
 30
0.0
 40
0
 41
0
  0
VERTEX
  8
0
 10
39.9871
 20
199.758
 30
0.0
 40
0
 41
0
  0
VERTEX
  8
0
 10
39.9492
 20
199.51
 30
0.0
 40
0
 41
0
  0
VERTEX
  8
0
 10
39.8876
 20
199.271
 30
0.0
 40
0
 41
0
  0
VERTEX
  8
0
 10
39.8036
 20
199.04
 30
0.0
 40
0
 41
0
  0
VERTEX
  8
0
 10
39.6983
 20
198.822
 30
0.0
 40
0
 41
0
  0
VERTEX
  8
0
 10
39.5731
 20
198.615
 30
0.0
 40
0
 41
0
  0
VERTEX
  8
0
 10
39.4292
 20
198.424
 30
0.0
 40
0
 41
0
  0
VERTEX
  8
0
 10
39.2678
 20
198.246
 30
0.0
 40
0
 41
0
  0
VERTEX
  8
0
 10
39.0903
 20
198.085
 30
0.0
 40
0
 41
0
  0
VERTEX
  8
0
 10
38.8978
 20
197.94
 30
0.0
 40
0
 41
0
  0
VERTEX
  8
0
 10
38.6917
 20
197.815
 30
0.0
 40
0
 41
0
  0
VERTEX
  8
0
 10
38.4732
 20
197.71
 30
0.0
 40
0
 41
0
  0
VERTEX
  8
0
 10
38.2435
 20
197.626
 30
0.0
 40
0
 41
0
  0
VERTEX
  8
0
 10
38.0039
 20
197.564
 30
0.0
 40
0
 41
0
  0
VERTEX
  8
0
 10
37.7557
 20
197.526
 30
0.0
 40
0
 41
0
  0
VERTEX
  8
0
 10
37.5639
 20
197.514
 30
0.0
 40
0
 41
0
  0
VERTEX
  8
0
 10
37.5
 20
197.514
 30
0.0
 40
0
 41
0
  0
VERTEX
  8
0
 10
37.4361
 20
197.514
 30
0.0
 40
0
 41
0
  0
VERTEX
  8
0
 10
37.2444
 20
197.526
 30
0.0
 40
0
 41
0
  0
VERTEX
  8
0
 10
36.9963
 20
197.564
 30
0.0
 40
0
 41
0
  0
VERTEX
  8
0
 10
36.7567
 20
197.626
 30
0.0
 40
0
 41
0
  0
VERTEX
  8
0
 10
36.5269
 20
197.71
 30
0.0
 40
0
 41
0
  0
VERTEX
  8
0
 10
36.3083
 20
197.815
 30
0.0
 40
0
 41
0
  0
VERTEX
  8
0
 10
36.1022
 20
197.94
 30
0.0
 40
0
 41
0
  0
VERTEX
  8
0
 10
35.9097
 20
198.085
 30
0.0
 40
0
 41
0
  0
VERTEX
  8
0
 10
35.7322
 20
198.246
 30
0.0
 40
0
 41
0
  0
VERTEX
  8
0
 10
35.571
 20
198.424
 30
0.0
 40
0
 41
0
  0
VERTEX
  8
0
 10
35.4269
 20
198.615
 30
0.0
 40
0
 41
0
  0
VERTEX
  8
0
 10
35.3018
 20
198.822
 30
0.0
 40
0
 41
0
  0
VERTEX
  8
0
 10
35.1965
 20
199.04
 30
0.0
 40
0
 41
0
  0
VERTEX
  8
0
 10
35.1124
 20
199.271
 30
0.0
 40
0
 41
0
  0
VERTEX
  8
0
 10
35.0508
 20
199.51
 30
0.0
 40
0
 41
0
  0
VERTEX
  8
0
 10
35.0129
 20
199.758
 30
0.0
 40
0
 41
0
  0
VERTEX
  8
0
 10
35
 20
199.95
 30
0.0
 40
0
 41
0
  0
VERTEX
  8
0
 10
35
 20
200.014
 30
0.0
 40
0
 41
0
  0
VERTEX
  8
0
 10
35
 20
200.078
 30
0.0
 40
0
 41
0
  0
VERTEX
  8
0
 10
35.0129
 20
200.269
 30
0.0
 40
0
 41
0
  0
VERTEX
  8
0
 10
35.0508
 20
200.518
 30
0.0
 40
0
 41
0
  0
VERTEX
  8
0
 10
35.1124
 20
200.757
 30
0.0
 40
0
 41
0
  0
VERTEX
  8
0
 10
35.1965
 20
200.986
 30
0.0
 40
0
 41
0
  0
VERTEX
  8
0
 10
35.3018
 20
201.206
 30
0.0
 40
0
 41
0
  0
VERTEX
  8
0
 10
35.4269
 20
201.411
 30
0.0
 40
0
 41
0
  0
VERTEX
  8
0
 10
35.571
 20
201.604
 30
0.0
 40
0
 41
0
  0
VERTEX
  8
0
 10
35.7322
 20
201.782
 30
0.0
 40
0
 41
0
  0
VERTEX
  8
0
 10
35.9097
 20
201.943
 30
0.0
 40
0
 41
0
  0
VERTEX
  8
0
 10
36.1022
 20
202.086
 30
0.0
 40
0
 41
0
  0
VERTEX
  8
0
 10
36.3083
 20
202.212
 30
0.0
 40
0
 41
0
  0
VERTEX
  8
0
 10
36.5269
 20
202.317
 30
0.0
 40
0
 41
0
  0
VERTEX
  8
0
 10
36.7567
 20
202.401
 30
0.0
 40
0
 41
0
  0
VERTEX
  8
0
 10
36.9963
 20
202.462
 30
0.0
 40
0
 41
0
  0
VERTEX
  8
0
 10
37.2444
 20
202.501
 30
0.0
 40
0
 41
0
  0
VERTEX
  8
0
 10
37.4361
 20
202.514
 30
0.0
 40
0
 41
0
  0
VERTEX
  8
0
 10
37.5
 20
202.514
 30
0.0
 40
0
 41
0
  0
VERTEX
  8
0
 10
37.5639
 20
202.514
 30
0.0
 40
0
 41
0
  0
VERTEX
  8
0
 10
37.7557
 20
202.501
 30
0.0
 40
0
 41
0
  0
VERTEX
  8
0
 10
38.0039
 20
202.462
 30
0.0
 40
0
 41
0
  0
VERTEX
  8
0
 10
38.2435
 20
202.401
 30
0.0
 40
0
 41
0
  0
VERTEX
  8
0
 10
38.4732
 20
202.317
 30
0.0
 40
0
 41
0
  0
VERTEX
  8
0
 10
38.6917
 20
202.212
 30
0.0
 40
0
 41
0
  0
VERTEX
  8
0
 10
38.8978
 20
202.086
 30
0.0
 40
0
 41
0
  0
VERTEX
  8
0
 10
39.0903
 20
201.943
 30
0.0
 40
0
 41
0
  0
VERTEX
  8
0
 10
39.2678
 20
201.782
 30
0.0
 40
0
 41
0
  0
VERTEX
  8
0
 10
39.4292
 20
201.604
 30
0.0
 40
0
 41
0
  0
VERTEX
  8
0
 10
39.5731
 20
201.411
 30
0.0
 40
0
 41
0
  0
VERTEX
  8
0
 10
39.6983
 20
201.206
 30
0.0
 40
0
 41
0
  0
VERTEX
  8
0
 10
39.8036
 20
200.986
 30
0.0
 40
0
 41
0
  0
VERTEX
  8
0
 10
39.8876
 20
200.757
 30
0.0
 40
0
 41
0
  0
VERTEX
  8
0
 10
39.9492
 20
200.518
 30
0.0
 40
0
 41
0
  0
VERTEX
  8
0
 10
39.9871
 20
200.269
 30
0.0
 40
0
 41
0
  0
VERTEX
  8
0
 10
40
 20
200.078
 30
0.0
 40
0
 41
0
  0
VERTEX
  8
0
 10
40
 20
200.014
 30
0.0
 40
0
 41
0
  0
SEQEND
 8
0
  0
POLYLINE
  8
0
 62
     0
 66
     1
 10
0
 20
0
 30
0.0
 70
     1
 40
0
 41
0
  0
VERTEX
  8
0
 10
40
 20
20.0133
 30
0.0
 40
0
 41
0
  0
VERTEX
  8
0
 10
40
 20
19.9494
 30
0.0
 40
0
 41
0
  0
VERTEX
  8
0
 10
39.9871
 20
19.7576
 30
0.0
 40
0
 41
0
  0
VERTEX
  8
0
 10
39.9492
 20
19.5094
 30
0.0
 40
0
 41
0
  0
VERTEX
  8
0
 10
39.8876
 20
19.2699
 30
0.0
 40
0
 41
0
  0
VERTEX
  8
0
 10
39.8036
 20
19.0401
 30
0.0
 40
0
 41
0
  0
VERTEX
  8
0
 10
39.6983
 20
18.8217
 30
0.0
 40
0
 41
0
  0
VERTEX
  8
0
 10
39.5731
 20
18.6156
 30
0.0
 40
0
 41
0
  0
VERTEX
  8
0
 10
39.4292
 20
18.4231
 30
0.0
 40
0
 41
0
  0
VERTEX
  8
0
 10
39.2678
 20
18.2456
 30
0.0
 40
0
 41
0
  0
VERTEX
  8
0
 10
39.0903
 20
18.0842
 30
0.0
 40
0
 41
0
  0
VERTEX
  8
0
 10
38.8978
 20
17.9403
 30
0.0
 40
0
 41
0
  0
VERTEX
  8
0
 10
38.6917
 20
17.815
 30
0.0
 40
0
 41
0
  0
VERTEX
  8
0
 10
38.4732
 20
17.7099
 30
0.0
 40
0
 41
0
  0
VERTEX
  8
0
 10
38.2435
 20
17.6257
 30
0.0
 40
0
 41
0
  0
VERTEX
  8
0
 10
38.0039
 20
17.5642
 30
0.0
 40
0
 41
0
  0
VERTEX
  8
0
 10
37.7557
 20
17.5263
 30
0.0
 40
0
 41
0
  0
VERTEX
  8
0
 10
37.5639
 20
17.5133
 30
0.0
 40
0
 41
0
  0
VERTEX
  8
0
 10
37.5
 20
17.5133
 30
0.0
 40
0
 41
0
  0
VERTEX
  8
0
 10
37.4361
 20
17.5133
 30
0.0
 40
0
 41
0
  0
VERTEX
  8
0
 10
37.2444
 20
17.5263
 30
0.0
 40
0
 41
0
  0
VERTEX
  8
0
 10
36.9963
 20
17.5642
 30
0.0
 40
0
 41
0
  0
VERTEX
  8
0
 10
36.7567
 20
17.6257
 30
0.0
 40
0
 41
0
  0
VERTEX
  8
0
 10
36.5269
 20
17.7099
 30
0.0
 40
0
 41
0
  0
VERTEX
  8
0
 10
36.3083
 20
17.815
 30
0.0
 40
0
 41
0
  0
VERTEX
  8
0
 10
36.1022
 20
17.9403
 30
0.0
 40
0
 41
0
  0
VERTEX
  8
0
 10
35.9097
 20
18.0842
 30
0.0
 40
0
 41
0
  0
VERTEX
  8
0
 10
35.7322
 20
18.2456
 30
0.0
 40
0
 41
0
  0
VERTEX
  8
0
 10
35.571
 20
18.4231
 30
0.0
 40
0
 41
0
  0
VERTEX
  8
0
 10
35.4269
 20
18.6156
 30
0.0
 40
0
 41
0
  0
VERTEX
  8
0
 10
35.3018
 20
18.8217
 30
0.0
 40
0
 41
0
  0
VERTEX
  8
0
 10
35.1965
 20
19.0401
 30
0.0
 40
0
 41
0
  0
VERTEX
  8
0
 10
35.1124
 20
19.2699
 30
0.0
 40
0
 41
0
  0
VERTEX
  8
0
 10
35.0508
 20
19.5094
 30
0.0
 40
0
 41
0
  0
VERTEX
  8
0
 10
35.0129
 20
19.7576
 30
0.0
 40
0
 41
0
  0
VERTEX
  8
0
 10
35
 20
19.9494
 30
0.0
 40
0
 41
0
  0
VERTEX
  8
0
 10
35
 20
20.0133
 30
0.0
 40
0
 41
0
  0
VERTEX
  8
0
 10
35
 20
20.0772
 30
0.0
 40
0
 41
0
  0
VERTEX
  8
0
 10
35.0129
 20
20.2689
 30
0.0
 40
0
 41
0
  0
VERTEX
  8
0
 10
35.0508
 20
20.5171
 30
0.0
 40
0
 41
0
  0
VERTEX
  8
0
 10
35.1124
 20
20.7568
 30
0.0
 40
0
 41
0
  0
VERTEX
  8
0
 10
35.1965
 20
20.9864
 30
0.0
 40
0
 41
0
  0
VERTEX
  8
0
 10
35.3018
 20
21.205
 30
0.0
 40
0
 41
0
  0
VERTEX
  8
0
 10
35.4269
 20
21.4111
 30
0.0
 40
0
 41
0
  0
VERTEX
  8
0
 10
35.571
 20
21.6036
 30
0.0
 40
0
 41
0
  0
VERTEX
  8
0
 10
35.7322
 20
21.7811
 30
0.0
 40
0
 41
0
  0
VERTEX
  8
0
 10
35.9097
 20
21.9425
 30
0.0
 40
0
 41
0
  0
VERTEX
  8
0
 10
36.1022
 20
22.0864
 30
0.0
 40
0
 41
0
  0
VERTEX
  8
0
 10
36.3083
 20
22.2115
 30
0.0
 40
0
 41
0
  0
VERTEX
  8
0
 10
36.5269
 20
22.3168
 30
0.0
 40
0
 41
0
  0
VERTEX
  8
0
 10
36.7567
 20
22.401
 30
0.0
 40
0
 41
0
  0
VERTEX
  8
0
 10
36.9963
 20
22.4625
 30
0.0
 40
0
 41
0
  0
VERTEX
  8
0
 10
37.2444
 20
22.5004
 30
0.0
 40
0
 41
0
  0
VERTEX
  8
0
 10
37.4361
 20
22.5133
 30
0.0
 40
0
 41
0
  0
VERTEX
  8
0
 10
37.5
 20
22.5133
 30
0.0
 40
0
 41
0
  0
VERTEX
  8
0
 10
37.5639
 20
22.5133
 30
0.0
 40
0
 41
0
  0
VERTEX
  8
0
 10
37.7557
 20
22.5004
 30
0.0
 40
0
 41
0
  0
VERTEX
  8
0
 10
38.0039
 20
22.4625
 30
0.0
 40
0
 41
0
  0
VERTEX
  8
0
 10
38.2435
 20
22.401
 30
0.0
 40
0
 41
0
  0
VERTEX
  8
0
 10
38.4732
 20
22.3168
 30
0.0
 40
0
 41
0
  0
VERTEX
  8
0
 10
38.6917
 20
22.2115
 30
0.0
 40
0
 41
0
  0
VERTEX
  8
0
 10
38.8978
 20
22.0864
 30
0.0
 40
0
 41
0
  0
VERTEX
  8
0
 10
39.0903
 20
21.9425
 30
0.0
 40
0
 41
0
  0
VERTEX
  8
0
 10
39.2678
 20
21.7811
 30
0.0
 40
0
 41
0
  0
VERTEX
  8
0
 10
39.4292
 20
21.6036
 30
0.0
 40
0
 41
0
  0
VERTEX
  8
0
 10
39.5731
 20
21.4111
 30
0.0
 40
0
 41
0
  0
VERTEX
  8
0
 10
39.6983
 20
21.205
 30
0.0
 40
0
 41
0
  0
VERTEX
  8
0
 10
39.8036
 20
20.9864
 30
0.0
 40
0
 41
0
  0
VERTEX
  8
0
 10
39.8876
 20
20.7568
 30
0.0
 40
0
 41
0
  0
VERTEX
  8
0
 10
39.9492
 20
20.5171
 30
0.0
 40
0
 41
0
  0
VERTEX
  8
0
 10
39.9871
 20
20.2689
 30
0.0
 40
0
 41
0
  0
VERTEX
  8
0
 10
40
 20
20.0772
 30
0.0
 40
0
 41
0
  0
VERTEX
  8
0
 10
40
 20
20.0133
 30
0.0
 40
0
 41
0
  0
SEQEND
 8
0
  0
POLYLINE
  8
0
 62
     0
 66
     1
 10
0
 20
0
 30
0.0
 70
     1
 40
0
 41
0
  0
VERTEX
  8
0
 10
60.0001
 20
391.764
 30
0.0
 40
0
 41
0
  0
VERTEX
  8
0
 10
54.4
 20
391.764
 30
0.0
 40
0
 41
0
  0
VERTEX
  8
0
 10
54.4
 20
389.014
 30
0.0
 40
0
 41
0
  0
VERTEX
  8
0
 10
60.0001
 20
389.014
 30
0.0
 40
0
 41
0
  0
VERTEX
  8
0
 10
60.0001
 20
11.0133
 30
0.0
 40
0
 41
0
  0
VERTEX
  8
0
 10
54.4
 20
11.0133
 30
0.0
 40
0
 41
0
  0
VERTEX
  8
0
 10
54.4
 20
8.26329
 30
0.0
 40
0
 41
0
  0
VERTEX
  8
0
 10
60.0001
 20
8.26329
 30
0.0
 40
0
 41
0
  0
VERTEX
  8
0
 10
60.0001
 20
5.51329
 30
0.0
 40
0
 41
0
  0
VERTEX
  8
0
 10
55.0001
 20
5.51329
 30
0.0
 40
0
 41
0
  0
VERTEX
  8
0
 10
55.0001
 20
0.0132921
 30
0.0
 40
0
 41
0
  0
VERTEX
  8
0
 10
50
 20
0.0132921
 30
0.0
 40
0
 41
0
  0
VERTEX
  8
0
 10
50
 20
5.51329
 30
0.0
 40
0
 41
0
  0
VERTEX
  8
0
 10
45
 20
5.51329
 30
0.0
 40
0
 41
0
  0
VERTEX
  8
0
 10
45
 20
394.514
 30
0.0
 40
0
 41
0
  0
VERTEX
  8
0
 10
50
 20
394.514
 30
0.0
 40
0
 41
0
  0
VERTEX
  8
0
 10
50
 20
400.014
 30
0.0
 40
0
 41
0
  0
VERTEX
  8
0
 10
55.0001
 20
400.014
 30
0.0
 40
0
 41
0
  0
VERTEX
  8
0
 10
55.0001
 20
394.514
 30
0.0
 40
0
 41
0
  0
VERTEX
  8
0
 10
60.0001
 20
394.514
 30
0.0
 40
0
 41
0
  0
VERTEX
  8
0
 10
60.0001
 20
391.764
 30
0.0
 40
0
 41
0
  0
SEQEND
 8
0
  0
POLYLINE
  8
0
 62
     0
 66
     1
 10
0
 20
0
 30
0.0
 70
     1
 40
0
 41
0
  0
VERTEX
  8
0
 10
55.0001
 20
380.014
 30
0.0
 40
0
 41
0
  0
VERTEX
  8
0
 10
55.0001
 20
379.95
 30
0.0
 40
0
 41
0
  0
VERTEX
  8
0
 10
54.9872
 20
379.758
 30
0.0
 40
0
 41
0
  0
VERTEX
  8
0
 10
54.9493
 20
379.51
 30
0.0
 40
0
 41
0
  0
VERTEX
  8
0
 10
54.8876
 20
379.271
 30
0.0
 40
0
 41
0
  0
VERTEX
  8
0
 10
54.8036
 20
379.04
 30
0.0
 40
0
 41
0
  0
VERTEX
  8
0
 10
54.6983
 20
378.822
 30
0.0
 40
0
 41
0
  0
VERTEX
  8
0
 10
54.5732
 20
378.617
 30
0.0
 40
0
 41
0
  0
VERTEX
  8
0
 10
54.4292
 20
378.424
 30
0.0
 40
0
 41
0
  0
VERTEX
  8
0
 10
54.2679
 20
378.246
 30
0.0
 40
0
 41
0
  0
VERTEX
  8
0
 10
54.0903
 20
378.085
 30
0.0
 40
0
 41
0
  0
VERTEX
  8
0
 10
53.8978
 20
377.94
 30
0.0
 40
0
 41
0
  0
VERTEX
  8
0
 10
53.6917
 20
377.815
 30
0.0
 40
0
 41
0
  0
VERTEX
  8
0
 10
53.4732
 20
377.71
 30
0.0
 40
0
 41
0
  0
VERTEX
  8
0
 10
53.2435
 20
377.626
 30
0.0
 40
0
 41
0
  0
VERTEX
  8
0
 10
53.0039
 20
377.565
 30
0.0
 40
0
 41
0
  0
VERTEX
  8
0
 10
52.7557
 20
377.526
 30
0.0
 40
0
 41
0
  0
VERTEX
  8
0
 10
52.5639
 20
377.514
 30
0.0
 40
0
 41
0
  0
VERTEX
  8
0
 10
52.5
 20
377.514
 30
0.0
 40
0
 41
0
  0
VERTEX
  8
0
 10
52.4361
 20
377.514
 30
0.0
 40
0
 41
0
  0
VERTEX
  8
0
 10
52.2444
 20
377.526
 30
0.0
 40
0
 41
0
  0
VERTEX
  8
0
 10
51.9963
 20
377.565
 30
0.0
 40
0
 41
0
  0
VERTEX
  8
0
 10
51.7567
 20
377.626
 30
0.0
 40
0
 41
0
  0
VERTEX
  8
0
 10
51.5269
 20
377.71
 30
0.0
 40
0
 41
0
  0
VERTEX
  8
0
 10
51.3083
 20
377.815
 30
0.0
 40
0
 41
0
  0
VERTEX
  8
0
 10
51.1022
 20
377.94
 30
0.0
 40
0
 41
0
  0
VERTEX
  8
0
 10
50.9097
 20
378.085
 30
0.0
 40
0
 41
0
  0
VERTEX
  8
0
 10
50.7322
 20
378.246
 30
0.0
 40
0
 41
0
  0
VERTEX
  8
0
 10
50.571
 20
378.424
 30
0.0
 40
0
 41
0
  0
VERTEX
  8
0
 10
50.4269
 20
378.617
 30
0.0
 40
0
 41
0
  0
VERTEX
  8
0
 10
50.3018
 20
378.822
 30
0.0
 40
0
 41
0
  0
VERTEX
  8
0
 10
50.1965
 20
379.04
 30
0.0
 40
0
 41
0
  0
VERTEX
  8
0
 10
50.1124
 20
379.271
 30
0.0
 40
0
 41
0
  0
VERTEX
  8
0
 10
50.0508
 20
379.51
 30
0.0
 40
0
 41
0
  0
VERTEX
  8
0
 10
50.0129
 20
379.758
 30
0.0
 40
0
 41
0
  0
VERTEX
  8
0
 10
50
 20
379.95
 30
0.0
 40
0
 41
0
  0
VERTEX
  8
0
 10
50
 20
380.014
 30
0.0
 40
0
 41
0
  0
VERTEX
  8
0
 10
50
 20
380.078
 30
0.0
 40
0
 41
0
  0
VERTEX
  8
0
 10
50.0129
 20
380.269
 30
0.0
 40
0
 41
0
  0
VERTEX
  8
0
 10
50.0508
 20
380.518
 30
0.0
 40
0
 41
0
  0
VERTEX
  8
0
 10
50.1124
 20
380.757
 30
0.0
 40
0
 41
0
  0
VERTEX
  8
0
 10
50.1965
 20
380.987
 30
0.0
 40
0
 41
0
  0
VERTEX
  8
0
 10
50.3018
 20
381.206
 30
0.0
 40
0
 41
0
  0
VERTEX
  8
0
 10
50.4269
 20
381.411
 30
0.0
 40
0
 41
0
  0
VERTEX
  8
0
 10
50.571
 20
381.604
 30
0.0
 40
0
 41
0
  0
VERTEX
  8
0
 10
50.7322
 20
381.782
 30
0.0
 40
0
 41
0
  0
VERTEX
  8
0
 10
50.9097
 20
381.943
 30
0.0
 40
0
 41
0
  0
VERTEX
  8
0
 10
51.1022
 20
382.088
 30
0.0
 40
0
 41
0
  0
VERTEX
  8
0
 10
51.3083
 20
382.213
 30
0.0
 40
0
 41
0
  0
VERTEX
  8
0
 10
51.5269
 20
382.318
 30
0.0
 40
0
 41
0
  0
VERTEX
  8
0
 10
51.7567
 20
382.401
 30
0.0
 40
0
 41
0
  0
VERTEX
  8
0
 10
51.9963
 20
382.463
 30
0.0
 40
0
 41
0
  0
VERTEX
  8
0
 10
52.2444
 20
382.501
 30
0.0
 40
0
 41
0
  0
VERTEX
  8
0
 10
52.4361
 20
382.514
 30
0.0
 40
0
 41
0
  0
VERTEX
  8
0
 10
52.5
 20
382.514
 30
0.0
 40
0
 41
0
  0
VERTEX
  8
0
 10
52.5639
 20
382.514
 30
0.0
 40
0
 41
0
  0
VERTEX
  8
0
 10
52.7557
 20
382.501
 30
0.0
 40
0
 41
0
  0
VERTEX
  8
0
 10
53.0039
 20
382.463
 30
0.0
 40
0
 41
0
  0
VERTEX
  8
0
 10
53.2435
 20
382.401
 30
0.0
 40
0
 41
0
  0
VERTEX
  8
0
 10
53.4732
 20
382.318
 30
0.0
 40
0
 41
0
  0
VERTEX
  8
0
 10
53.6917
 20
382.213
 30
0.0
 40
0
 41
0
  0
VERTEX
  8
0
 10
53.8978
 20
382.088
 30
0.0
 40
0
 41
0
  0
VERTEX
  8
0
 10
54.0903
 20
381.943
 30
0.0
 40
0
 41
0
  0
VERTEX
  8
0
 10
54.2679
 20
381.782
 30
0.0
 40
0
 41
0
  0
VERTEX
  8
0
 10
54.4292
 20
381.604
 30
0.0
 40
0
 41
0
  0
VERTEX
  8
0
 10
54.5732
 20
381.411
 30
0.0
 40
0
 41
0
  0
VERTEX
  8
0
 10
54.6983
 20
381.206
 30
0.0
 40
0
 41
0
  0
VERTEX
  8
0
 10
54.8036
 20
380.987
 30
0.0
 40
0
 41
0
  0
VERTEX
  8
0
 10
54.8876
 20
380.757
 30
0.0
 40
0
 41
0
  0
VERTEX
  8
0
 10
54.9493
 20
380.518
 30
0.0
 40
0
 41
0
  0
VERTEX
  8
0
 10
54.9872
 20
380.269
 30
0.0
 40
0
 41
0
  0
VERTEX
  8
0
 10
55.0001
 20
380.078
 30
0.0
 40
0
 41
0
  0
VERTEX
  8
0
 10
55.0001
 20
380.014
 30
0.0
 40
0
 41
0
  0
SEQEND
 8
0
  0
POLYLINE
  8
0
 62
     0
 66
     1
 10
0
 20
0
 30
0.0
 70
     1
 40
0
 41
0
  0
VERTEX
  8
0
 10
55.0001
 20
200.014
 30
0.0
 40
0
 41
0
  0
VERTEX
  8
0
 10
55.0001
 20
199.95
 30
0.0
 40
0
 41
0
  0
VERTEX
  8
0
 10
54.9872
 20
199.758
 30
0.0
 40
0
 41
0
  0
VERTEX
  8
0
 10
54.9493
 20
199.51
 30
0.0
 40
0
 41
0
  0
VERTEX
  8
0
 10
54.8876
 20
199.271
 30
0.0
 40
0
 41
0
  0
VERTEX
  8
0
 10
54.8036
 20
199.04
 30
0.0
 40
0
 41
0
  0
VERTEX
  8
0
 10
54.6983
 20
198.822
 30
0.0
 40
0
 41
0
  0
VERTEX
  8
0
 10
54.5732
 20
198.615
 30
0.0
 40
0
 41
0
  0
VERTEX
  8
0
 10
54.4292
 20
198.424
 30
0.0
 40
0
 41
0
  0
VERTEX
  8
0
 10
54.2679
 20
198.246
 30
0.0
 40
0
 41
0
  0
VERTEX
  8
0
 10
54.0903
 20
198.085
 30
0.0
 40
0
 41
0
  0
VERTEX
  8
0
 10
53.8978
 20
197.94
 30
0.0
 40
0
 41
0
  0
VERTEX
  8
0
 10
53.6917
 20
197.815
 30
0.0
 40
0
 41
0
  0
VERTEX
  8
0
 10
53.4732
 20
197.71
 30
0.0
 40
0
 41
0
  0
VERTEX
  8
0
 10
53.2435
 20
197.626
 30
0.0
 40
0
 41
0
  0
VERTEX
  8
0
 10
53.0039
 20
197.564
 30
0.0
 40
0
 41
0
  0
VERTEX
  8
0
 10
52.7557
 20
197.526
 30
0.0
 40
0
 41
0
  0
VERTEX
  8
0
 10
52.5639
 20
197.514
 30
0.0
 40
0
 41
0
  0
VERTEX
  8
0
 10
52.5
 20
197.514
 30
0.0
 40
0
 41
0
  0
VERTEX
  8
0
 10
52.4361
 20
197.514
 30
0.0
 40
0
 41
0
  0
VERTEX
  8
0
 10
52.2444
 20
197.526
 30
0.0
 40
0
 41
0
  0
VERTEX
  8
0
 10
51.9963
 20
197.564
 30
0.0
 40
0
 41
0
  0
VERTEX
  8
0
 10
51.7567
 20
197.626
 30
0.0
 40
0
 41
0
  0
VERTEX
  8
0
 10
51.5269
 20
197.71
 30
0.0
 40
0
 41
0
  0
VERTEX
  8
0
 10
51.3083
 20
197.815
 30
0.0
 40
0
 41
0
  0
VERTEX
  8
0
 10
51.1022
 20
197.94
 30
0.0
 40
0
 41
0
  0
VERTEX
  8
0
 10
50.9097
 20
198.085
 30
0.0
 40
0
 41
0
  0
VERTEX
  8
0
 10
50.7322
 20
198.246
 30
0.0
 40
0
 41
0
  0
VERTEX
  8
0
 10
50.571
 20
198.424
 30
0.0
 40
0
 41
0
  0
VERTEX
  8
0
 10
50.4269
 20
198.615
 30
0.0
 40
0
 41
0
  0
VERTEX
  8
0
 10
50.3018
 20
198.822
 30
0.0
 40
0
 41
0
  0
VERTEX
  8
0
 10
50.1965
 20
199.04
 30
0.0
 40
0
 41
0
  0
VERTEX
  8
0
 10
50.1124
 20
199.271
 30
0.0
 40
0
 41
0
  0
VERTEX
  8
0
 10
50.0508
 20
199.51
 30
0.0
 40
0
 41
0
  0
VERTEX
  8
0
 10
50.0129
 20
199.758
 30
0.0
 40
0
 41
0
  0
VERTEX
  8
0
 10
50
 20
199.95
 30
0.0
 40
0
 41
0
  0
VERTEX
  8
0
 10
50
 20
200.014
 30
0.0
 40
0
 41
0
  0
VERTEX
  8
0
 10
50
 20
200.078
 30
0.0
 40
0
 41
0
  0
VERTEX
  8
0
 10
50.0129
 20
200.269
 30
0.0
 40
0
 41
0
  0
VERTEX
  8
0
 10
50.0508
 20
200.518
 30
0.0
 40
0
 41
0
  0
VERTEX
  8
0
 10
50.1124
 20
200.757
 30
0.0
 40
0
 41
0
  0
VERTEX
  8
0
 10
50.1965
 20
200.986
 30
0.0
 40
0
 41
0
  0
VERTEX
  8
0
 10
50.3018
 20
201.206
 30
0.0
 40
0
 41
0
  0
VERTEX
  8
0
 10
50.4269
 20
201.411
 30
0.0
 40
0
 41
0
  0
VERTEX
  8
0
 10
50.571
 20
201.604
 30
0.0
 40
0
 41
0
  0
VERTEX
  8
0
 10
50.7322
 20
201.782
 30
0.0
 40
0
 41
0
  0
VERTEX
  8
0
 10
50.9097
 20
201.943
 30
0.0
 40
0
 41
0
  0
VERTEX
  8
0
 10
51.1022
 20
202.086
 30
0.0
 40
0
 41
0
  0
VERTEX
  8
0
 10
51.3083
 20
202.212
 30
0.0
 40
0
 41
0
  0
VERTEX
  8
0
 10
51.5269
 20
202.317
 30
0.0
 40
0
 41
0
  0
VERTEX
  8
0
 10
51.7567
 20
202.401
 30
0.0
 40
0
 41
0
  0
VERTEX
  8
0
 10
51.9963
 20
202.462
 30
0.0
 40
0
 41
0
  0
VERTEX
  8
0
 10
52.2444
 20
202.501
 30
0.0
 40
0
 41
0
  0
VERTEX
  8
0
 10
52.4361
 20
202.514
 30
0.0
 40
0
 41
0
  0
VERTEX
  8
0
 10
52.5
 20
202.514
 30
0.0
 40
0
 41
0
  0
VERTEX
  8
0
 10
52.5639
 20
202.514
 30
0.0
 40
0
 41
0
  0
VERTEX
  8
0
 10
52.7557
 20
202.501
 30
0.0
 40
0
 41
0
  0
VERTEX
  8
0
 10
53.0039
 20
202.462
 30
0.0
 40
0
 41
0
  0
VERTEX
  8
0
 10
53.2435
 20
202.401
 30
0.0
 40
0
 41
0
  0
VERTEX
  8
0
 10
53.4732
 20
202.317
 30
0.0
 40
0
 41
0
  0
VERTEX
  8
0
 10
53.6917
 20
202.212
 30
0.0
 40
0
 41
0
  0
VERTEX
  8
0
 10
53.8978
 20
202.086
 30
0.0
 40
0
 41
0
  0
VERTEX
  8
0
 10
54.0903
 20
201.943
 30
0.0
 40
0
 41
0
  0
VERTEX
  8
0
 10
54.2679
 20
201.782
 30
0.0
 40
0
 41
0
  0
VERTEX
  8
0
 10
54.4292
 20
201.604
 30
0.0
 40
0
 41
0
  0
VERTEX
  8
0
 10
54.5732
 20
201.411
 30
0.0
 40
0
 41
0
  0
VERTEX
  8
0
 10
54.6983
 20
201.206
 30
0.0
 40
0
 41
0
  0
VERTEX
  8
0
 10
54.8036
 20
200.986
 30
0.0
 40
0
 41
0
  0
VERTEX
  8
0
 10
54.8876
 20
200.757
 30
0.0
 40
0
 41
0
  0
VERTEX
  8
0
 10
54.9493
 20
200.518
 30
0.0
 40
0
 41
0
  0
VERTEX
  8
0
 10
54.9872
 20
200.269
 30
0.0
 40
0
 41
0
  0
VERTEX
  8
0
 10
55.0001
 20
200.078
 30
0.0
 40
0
 41
0
  0
VERTEX
  8
0
 10
55.0001
 20
200.014
 30
0.0
 40
0
 41
0
  0
SEQEND
 8
0
  0
POLYLINE
  8
0
 62
     0
 66
     1
 10
0
 20
0
 30
0.0
 70
     1
 40
0
 41
0
  0
VERTEX
  8
0
 10
55.0001
 20
20.0133
 30
0.0
 40
0
 41
0
  0
VERTEX
  8
0
 10
55.0001
 20
19.9494
 30
0.0
 40
0
 41
0
  0
VERTEX
  8
0
 10
54.9872
 20
19.7576
 30
0.0
 40
0
 41
0
  0
VERTEX
  8
0
 10
54.9493
 20
19.5094
 30
0.0
 40
0
 41
0
  0
VERTEX
  8
0
 10
54.8876
 20
19.2699
 30
0.0
 40
0
 41
0
  0
VERTEX
  8
0
 10
54.8036
 20
19.0401
 30
0.0
 40
0
 41
0
  0
VERTEX
  8
0
 10
54.6983
 20
18.8217
 30
0.0
 40
0
 41
0
  0
VERTEX
  8
0
 10
54.5732
 20
18.6156
 30
0.0
 40
0
 41
0
  0
VERTEX
  8
0
 10
54.4292
 20
18.4231
 30
0.0
 40
0
 41
0
  0
VERTEX
  8
0
 10
54.2679
 20
18.2456
 30
0.0
 40
0
 41
0
  0
VERTEX
  8
0
 10
54.0903
 20
18.0842
 30
0.0
 40
0
 41
0
  0
VERTEX
  8
0
 10
53.8978
 20
17.9403
 30
0.0
 40
0
 41
0
  0
VERTEX
  8
0
 10
53.6917
 20
17.815
 30
0.0
 40
0
 41
0
  0
VERTEX
  8
0
 10
53.4732
 20
17.7099
 30
0.0
 40
0
 41
0
  0
VERTEX
  8
0
 10
53.2435
 20
17.6257
 30
0.0
 40
0
 41
0
  0
VERTEX
  8
0
 10
53.0039
 20
17.5642
 30
0.0
 40
0
 41
0
  0
VERTEX
  8
0
 10
52.7557
 20
17.5263
 30
0.0
 40
0
 41
0
  0
VERTEX
  8
0
 10
52.5639
 20
17.5133
 30
0.0
 40
0
 41
0
  0
VERTEX
  8
0
 10
52.5
 20
17.5133
 30
0.0
 40
0
 41
0
  0
VERTEX
  8
0
 10
52.4361
 20
17.5133
 30
0.0
 40
0
 41
0
  0
VERTEX
  8
0
 10
52.2444
 20
17.5263
 30
0.0
 40
0
 41
0
  0
VERTEX
  8
0
 10
51.9963
 20
17.5642
 30
0.0
 40
0
 41
0
  0
VERTEX
  8
0
 10
51.7567
 20
17.6257
 30
0.0
 40
0
 41
0
  0
VERTEX
  8
0
 10
51.5269
 20
17.7099
 30
0.0
 40
0
 41
0
  0
VERTEX
  8
0
 10
51.3083
 20
17.815
 30
0.0
 40
0
 41
0
  0
VERTEX
  8
0
 10
51.1022
 20
17.9403
 30
0.0
 40
0
 41
0
  0
VERTEX
  8
0
 10
50.9097
 20
18.0842
 30
0.0
 40
0
 41
0
  0
VERTEX
  8
0
 10
50.7322
 20
18.2456
 30
0.0
 40
0
 41
0
  0
VERTEX
  8
0
 10
50.571
 20
18.4231
 30
0.0
 40
0
 41
0
  0
VERTEX
  8
0
 10
50.4269
 20
18.6156
 30
0.0
 40
0
 41
0
  0
VERTEX
  8
0
 10
50.3018
 20
18.8217
 30
0.0
 40
0
 41
0
  0
VERTEX
  8
0
 10
50.1965
 20
19.0401
 30
0.0
 40
0
 41
0
  0
VERTEX
  8
0
 10
50.1124
 20
19.2699
 30
0.0
 40
0
 41
0
  0
VERTEX
  8
0
 10
50.0508
 20
19.5094
 30
0.0
 40
0
 41
0
  0
VERTEX
  8
0
 10
50.0129
 20
19.7576
 30
0.0
 40
0
 41
0
  0
VERTEX
  8
0
 10
50
 20
19.9494
 30
0.0
 40
0
 41
0
  0
VERTEX
  8
0
 10
50
 20
20.0133
 30
0.0
 40
0
 41
0
  0
VERTEX
  8
0
 10
50
 20
20.0772
 30
0.0
 40
0
 41
0
  0
VERTEX
  8
0
 10
50.0129
 20
20.2689
 30
0.0
 40
0
 41
0
  0
VERTEX
  8
0
 10
50.0508
 20
20.5171
 30
0.0
 40
0
 41
0
  0
VERTEX
  8
0
 10
50.1124
 20
20.7568
 30
0.0
 40
0
 41
0
  0
VERTEX
  8
0
 10
50.1965
 20
20.9864
 30
0.0
 40
0
 41
0
  0
VERTEX
  8
0
 10
50.3018
 20
21.205
 30
0.0
 40
0
 41
0
  0
VERTEX
  8
0
 10
50.4269
 20
21.4111
 30
0.0
 40
0
 41
0
  0
VERTEX
  8
0
 10
50.571
 20
21.6036
 30
0.0
 40
0
 41
0
  0
VERTEX
  8
0
 10
50.7322
 20
21.7811
 30
0.0
 40
0
 41
0
  0
VERTEX
  8
0
 10
50.9097
 20
21.9425
 30
0.0
 40
0
 41
0
  0
VERTEX
  8
0
 10
51.1022
 20
22.0864
 30
0.0
 40
0
 41
0
  0
VERTEX
  8
0
 10
51.3083
 20
22.2115
 30
0.0
 40
0
 41
0
  0
VERTEX
  8
0
 10
51.5269
 20
22.3168
 30
0.0
 40
0
 41
0
  0
VERTEX
  8
0
 10
51.7567
 20
22.401
 30
0.0
 40
0
 41
0
  0
VERTEX
  8
0
 10
51.9963
 20
22.4625
 30
0.0
 40
0
 41
0
  0
VERTEX
  8
0
 10
52.2444
 20
22.5004
 30
0.0
 40
0
 41
0
  0
VERTEX
  8
0
 10
52.4361
 20
22.5133
 30
0.0
 40
0
 41
0
  0
VERTEX
  8
0
 10
52.5
 20
22.5133
 30
0.0
 40
0
 41
0
  0
VERTEX
  8
0
 10
52.5639
 20
22.5133
 30
0.0
 40
0
 41
0
  0
VERTEX
  8
0
 10
52.7557
 20
22.5004
 30
0.0
 40
0
 41
0
  0
VERTEX
  8
0
 10
53.0039
 20
22.4625
 30
0.0
 40
0
 41
0
  0
VERTEX
  8
0
 10
53.2435
 20
22.401
 30
0.0
 40
0
 41
0
  0
VERTEX
  8
0
 10
53.4732
 20
22.3168
 30
0.0
 40
0
 41
0
  0
VERTEX
  8
0
 10
53.6917
 20
22.2115
 30
0.0
 40
0
 41
0
  0
VERTEX
  8
0
 10
53.8978
 20
22.0864
 30
0.0
 40
0
 41
0
  0
VERTEX
  8
0
 10
54.0903
 20
21.9425
 30
0.0
 40
0
 41
0
  0
VERTEX
  8
0
 10
54.2679
 20
21.7811
 30
0.0
 40
0
 41
0
  0
VERTEX
  8
0
 10
54.4292
 20
21.6036
 30
0.0
 40
0
 41
0
  0
VERTEX
  8
0
 10
54.5732
 20
21.4111
 30
0.0
 40
0
 41
0
  0
VERTEX
  8
0
 10
54.6983
 20
21.205
 30
0.0
 40
0
 41
0
  0
VERTEX
  8
0
 10
54.8036
 20
20.9864
 30
0.0
 40
0
 41
0
  0
VERTEX
  8
0
 10
54.8876
 20
20.7568
 30
0.0
 40
0
 41
0
  0
VERTEX
  8
0
 10
54.9493
 20
20.5171
 30
0.0
 40
0
 41
0
  0
VERTEX
  8
0
 10
54.9872
 20
20.2689
 30
0.0
 40
0
 41
0
  0
VERTEX
  8
0
 10
55.0001
 20
20.0772
 30
0.0
 40
0
 41
0
  0
VERTEX
  8
0
 10
55.0001
 20
20.0133
 30
0.0
 40
0
 41
0
  0
SEQEND
 8
0
  0
POLYLINE
  8
0
 62
     0
 66
     1
 10
0
 20
0
 30
0.0
 70
     1
 40
0
 41
0
  0
VERTEX
  8
0
 10
70.1001
 20
384.914
 30
0.0
 40
0
 41
0
  0
VERTEX
  8
0
 10
70.1001
 20
389.864
 30
0.0
 40
0
 41
0
  0
VERTEX
  8
0
 10
65.1501
 20
389.864
 30
0.0
 40
0
 41
0
  0
VERTEX
  8
0
 10
55.0001
 20
400.014
 30
0.0
 40
0
 41
0
  0
VERTEX
  8
0
 10
59.9
 20
400.014
 30
0.0
 40
0
 41
0
  0
VERTEX
  8
0
 10
59.9
 20
397.164
 30
0.0
 40
0
 41
0
  0
VERTEX
  8
0
 10
65.1001
 20
397.164
 30
0.0
 40
0
 41
0
  0
VERTEX
  8
0
 10
65.1001
 20
400.014
 30
0.0
 40
0
 41
0
  0
VERTEX
  8
0
 10
70.91
 20
400.014
 30
0.0
 40
0
 41
0
  0
VERTEX
  8
0
 10
205
 20
265.924
 30
0.0
 40
0
 41
0
  0
VERTEX
  8
0
 10
205
 20
260.114
 30
0.0
 40
0
 41
0
  0
VERTEX
  8
0
 10
202.15
 20
260.114
 30
0.0
 40
0
 41
0
  0
VERTEX
  8
0
 10
202.15
 20
254.914
 30
0.0
 40
0
 41
0
  0
VERTEX
  8
0
 10
205
 20
254.914
 30
0.0
 40
0
 41
0
  0
VERTEX
  8
0
 10
205
 20
250.014
 30
0.0
 40
0
 41
0
  0
VERTEX
  8
0
 10
194.85
 20
260.164
 30
0.0
 40
0
 41
0
  0
VERTEX
  8
0
 10
194.85
 20
265.114
 30
0.0
 40
0
 41
0
  0
VERTEX
  8
0
 10
189.9
 20
265.114
 30
0.0
 40
0
 41
0
  0
VERTEX
  8
0
 10
70.1001
 20
384.914
 30
0.0
 40
0
 41
0
  0
SEQEND
 8
0
  0
POLYLINE
  8
0
 62
     0
 66
     1
 10
0
 20
0
 30
0.0
 70
     1
 40
0
 41
0
  0
VERTEX
  8
0
 10
75.1001
 20
364.004
 30
0.0
 40
0
 41
0
  0
VERTEX
  8
0
 10
75.1001
 20
368.954
 30
0.0
 40
0
 41
0
  0
VERTEX
  8
0
 10
70.1501
 20
368.954
 30
0.0
 40
0
 41
0
  0
VERTEX
  8
0
 10
60.0001
 20
379.104
 30
0.0
 40
0
 41
0
  0
VERTEX
  8
0
 10
64.9001
 20
379.104
 30
0.0
 40
0
 41
0
  0
VERTEX
  8
0
 10
64.9001
 20
376.254
 30
0.0
 40
0
 41
0
  0
VERTEX
  8
0
 10
70.1001
 20
376.254
 30
0.0
 40
0
 41
0
  0
VERTEX
  8
0
 10
70.1001
 20
379.104
 30
0.0
 40
0
 41
0
  0
VERTEX
  8
0
 10
75.91
 20
379.104
 30
0.0
 40
0
 41
0
  0
VERTEX
  8
0
 10
210
 20
245.014
 30
0.0
 40
0
 41
0
  0
VERTEX
  8
0
 10
210
 20
239.204
 30
0.0
 40
0
 41
0
  0
VERTEX
  8
0
 10
207.15
 20
239.204
 30
0.0
 40
0
 41
0
  0
VERTEX
  8
0
 10
207.15
 20
234.004
 30
0.0
 40
0
 41
0
  0
VERTEX
  8
0
 10
210
 20
234.004
 30
0.0
 40
0
 41
0
  0
VERTEX
  8
0
 10
210
 20
229.104
 30
0.0
 40
0
 41
0
  0
VERTEX
  8
0
 10
199.85
 20
239.254
 30
0.0
 40
0
 41
0
  0
VERTEX
  8
0
 10
199.85
 20
244.204
 30
0.0
 40
0
 41
0
  0
VERTEX
  8
0
 10
194.9
 20
244.204
 30
0.0
 40
0
 41
0
  0
VERTEX
  8
0
 10
75.1001
 20
364.004
 30
0.0
 40
0
 41
0
  0
SEQEND
 8
0
  0
POLYLINE
  8
0
 62
     0
 66
     1
 10
0
 20
0
 30
0.0
 70
     1
 40
0
 41
0
  0
VERTEX
  8
0
 10
75.1001
 20
348.094
 30
0.0
 40
0
 41
0
  0
VERTEX
  8
0
 10
75.1001
 20
353.044
 30
0.0
 40
0
 41
0
  0
VERTEX
  8
0
 10
70.1501
 20
353.044
 30
0.0
 40
0
 41
0
  0
VERTEX
  8
0
 10
60.0001
 20
363.194
 30
0.0
 40
0
 41
0
  0
VERTEX
  8
0
 10
64.9001
 20
363.194
 30
0.0
 40
0
 41
0
  0
VERTEX
  8
0
 10
64.9001
 20
360.344
 30
0.0
 40
0
 41
0
  0
VERTEX
  8
0
 10
70.1001
 20
360.344
 30
0.0
 40
0
 41
0
  0
VERTEX
  8
0
 10
70.1001
 20
363.194
 30
0.0
 40
0
 41
0
  0
VERTEX
  8
0
 10
75.91
 20
363.194
 30
0.0
 40
0
 41
0
  0
VERTEX
  8
0
 10
210
 20
229.104
 30
0.0
 40
0
 41
0
  0
VERTEX
  8
0
 10
210
 20
223.294
 30
0.0
 40
0
 41
0
  0
VERTEX
  8
0
 10
207.15
 20
223.294
 30
0.0
 40
0
 41
0
  0
VERTEX
  8
0
 10
207.15
 20
218.094
 30
0.0
 40
0
 41
0
  0
VERTEX
  8
0
 10
210
 20
218.094
 30
0.0
 40
0
 41
0
  0
VERTEX
  8
0
 10
210
 20
213.194
 30
0.0
 40
0
 41
0
  0
VERTEX
  8
0
 10
199.85
 20
223.344
 30
0.0
 40
0
 41
0
  0
VERTEX
  8
0
 10
199.85
 20
228.294
 30
0.0
 40
0
 41
0
  0
VERTEX
  8
0
 10
194.9
 20
228.294
 30
0.0
 40
0
 41
0
  0
VERTEX
  8
0
 10
75.1001
 20
348.094
 30
0.0
 40
0
 41
0
  0
SEQEND
 8
0
  0
POLYLINE
  8
0
 62
     0
 66
     1
 10
0
 20
0
 30
0.0
 70
     1
 40
0
 41
0
  0
VERTEX
  8
0
 10
75.1001
 20
332.185
 30
0.0
 40
0
 41
0
  0
VERTEX
  8
0
 10
75.1001
 20
337.135
 30
0.0
 40
0
 41
0
  0
VERTEX
  8
0
 10
70.1501
 20
337.135
 30
0.0
 40
0
 41
0
  0
VERTEX
  8
0
 10
60.0001
 20
347.285
 30
0.0
 40
0
 41
0
  0
VERTEX
  8
0
 10
64.9001
 20
347.285
 30
0.0
 40
0
 41
0
  0
VERTEX
  8
0
 10
64.9001
 20
344.435
 30
0.0
 40
0
 41
0
  0
VERTEX
  8
0
 10
70.1001
 20
344.435
 30
0.0
 40
0
 41
0
  0
VERTEX
  8
0
 10
70.1001
 20
347.285
 30
0.0
 40
0
 41
0
  0
VERTEX
  8
0
 10
75.91
 20
347.285
 30
0.0
 40
0
 41
0
  0
VERTEX
  8
0
 10
210
 20
213.194
 30
0.0
 40
0
 41
0
  0
VERTEX
  8
0
 10
210
 20
207.383
 30
0.0
 40
0
 41
0
  0
VERTEX
  8
0
 10
207.15
 20
207.383
 30
0.0
 40
0
 41
0
  0
VERTEX
  8
0
 10
207.15
 20
202.183
 30
0.0
 40
0
 41
0
  0
VERTEX
  8
0
 10
210
 20
202.183
 30
0.0
 40
0
 41
0
  0
VERTEX
  8
0
 10
210
 20
197.283
 30
0.0
 40
0
 41
0
  0
VERTEX
  8
0
 10
199.85
 20
207.433
 30
0.0
 40
0
 41
0
  0
VERTEX
  8
0
 10
199.85
 20
212.383
 30
0.0
 40
0
 41
0
  0
VERTEX
  8
0
 10
194.9
 20
212.383
 30
0.0
 40
0
 41
0
  0
VERTEX
  8
0
 10
75.1001
 20
332.185
 30
0.0
 40
0
 41
0
  0
SEQEND
 8
0
  0
POLYLINE
  8
0
 62
     0
 66
     1
 10
0
 20
0
 30
0.0
 70
     1
 40
0
 41
0
  0
VERTEX
  8
0
 10
75.1001
 20
316.274
 30
0.0
 40
0
 41
0
  0
VERTEX
  8
0
 10
75.1001
 20
321.224
 30
0.0
 40
0
 41
0
  0
VERTEX
  8
0
 10
70.1501
 20
321.224
 30
0.0
 40
0
 41
0
  0
VERTEX
  8
0
 10
60.0001
 20
331.374
 30
0.0
 40
0
 41
0
  0
VERTEX
  8
0
 10
64.9001
 20
331.374
 30
0.0
 40
0
 41
0
  0
VERTEX
  8
0
 10
64.9001
 20
328.524
 30
0.0
 40
0
 41
0
  0
VERTEX
  8
0
 10
70.1001
 20
328.524
 30
0.0
 40
0
 41
0
  0
VERTEX
  8
0
 10
70.1001
 20
331.374
 30
0.0
 40
0
 41
0
  0
VERTEX
  8
0
 10
75.91
 20
331.374
 30
0.0
 40
0
 41
0
  0
VERTEX
  8
0
 10
210
 20
197.283
 30
0.0
 40
0
 41
0
  0
VERTEX
  8
0
 10
210
 20
191.474
 30
0.0
 40
0
 41
0
  0
VERTEX
  8
0
 10
207.15
 20
191.474
 30
0.0
 40
0
 41
0
  0
VERTEX
  8
0
 10
207.15
 20
186.274
 30
0.0
 40
0
 41
0
  0
VERTEX
  8
0
 10
210
 20
186.274
 30
0.0
 40
0
 41
0
  0
VERTEX
  8
0
 10
210
 20
181.374
 30
0.0
 40
0
 41
0
  0
VERTEX
  8
0
 10
199.85
 20
191.524
 30
0.0
 40
0
 41
0
  0
VERTEX
  8
0
 10
199.85
 20
196.474
 30
0.0
 40
0
 41
0
  0
VERTEX
  8
0
 10
194.9
 20
196.474
 30
0.0
 40
0
 41
0
  0
VERTEX
  8
0
 10
75.1001
 20
316.274
 30
0.0
 40
0
 41
0
  0
SEQEND
 8
0
  0
POLYLINE
  8
0
 62
     0
 66
     1
 10
0
 20
0
 30
0.0
 70
     1
 40
0
 41
0
  0
VERTEX
  8
0
 10
75.1001
 20
300.364
 30
0.0
 40
0
 41
0
  0
VERTEX
  8
0
 10
75.1001
 20
305.314
 30
0.0
 40
0
 41
0
  0
VERTEX
  8
0
 10
70.1501
 20
305.314
 30
0.0
 40
0
 41
0
  0
VERTEX
  8
0
 10
60.0001
 20
315.464
 30
0.0
 40
0
 41
0
  0
VERTEX
  8
0
 10
64.9001
 20
315.464
 30
0.0
 40
0
 41
0
  0
VERTEX
  8
0
 10
64.9001
 20
312.614
 30
0.0
 40
0
 41
0
  0
VERTEX
  8
0
 10
70.1001
 20
312.614
 30
0.0
 40
0
 41
0
  0
VERTEX
  8
0
 10
70.1001
 20
315.464
 30
0.0
 40
0
 41
0
  0
VERTEX
  8
0
 10
75.91
 20
315.464
 30
0.0
 40
0
 41
0
  0
VERTEX
  8
0
 10
210
 20
181.374
 30
0.0
 40
0
 41
0
  0
VERTEX
  8
0
 10
210
 20
175.564
 30
0.0
 40
0
 41
0
  0
VERTEX
  8
0
 10
207.15
 20
175.564
 30
0.0
 40
0
 41
0
  0
VERTEX
  8
0
 10
207.15
 20
170.364
 30
0.0
 40
0
 41
0
  0
VERTEX
  8
0
 10
210
 20
170.364
 30
0.0
 40
0
 41
0
  0
VERTEX
  8
0
 10
210
 20
165.464
 30
0.0
 40
0
 41
0
  0
VERTEX
  8
0
 10
199.85
 20
175.614
 30
0.0
 40
0
 41
0
  0
VERTEX
  8
0
 10
199.85
 20
180.564
 30
0.0
 40
0
 41
0
  0
VERTEX
  8
0
 10
194.9
 20
180.564
 30
0.0
 40
0
 41
0
  0
VERTEX
  8
0
 10
75.1001
 20
300.364
 30
0.0
 40
0
 41
0
  0
SEQEND
 8
0
  0
POLYLINE
  8
0
 62
     0
 66
     1
 10
0
 20
0
 30
0.0
 70
     1
 40
0
 41
0
  0
VERTEX
  8
0
 10
75.1001
 20
284.454
 30
0.0
 40
0
 41
0
  0
VERTEX
  8
0
 10
75.1001
 20
289.404
 30
0.0
 40
0
 41
0
  0
VERTEX
  8
0
 10
70.1501
 20
289.404
 30
0.0
 40
0
 41
0
  0
VERTEX
  8
0
 10
60.0001
 20
299.554
 30
0.0
 40
0
 41
0
  0
VERTEX
  8
0
 10
64.9001
 20
299.554
 30
0.0
 40
0
 41
0
  0
VERTEX
  8
0
 10
64.9001
 20
296.704
 30
0.0
 40
0
 41
0
  0
VERTEX
  8
0
 10
70.1001
 20
296.704
 30
0.0
 40
0
 41
0
  0
VERTEX
  8
0
 10
70.1001
 20
299.554
 30
0.0
 40
0
 41
0
  0
VERTEX
  8
0
 10
75.91
 20
299.554
 30
0.0
 40
0
 41
0
  0
VERTEX
  8
0
 10
210
 20
165.464
 30
0.0
 40
0
 41
0
  0
VERTEX
  8
0
 10
210
 20
159.654
 30
0.0
 40
0
 41
0
  0
VERTEX
  8
0
 10
207.15
 20
159.654
 30
0.0
 40
0
 41
0
  0
VERTEX
  8
0
 10
207.15
 20
154.454
 30
0.0
 40
0
 41
0
  0
VERTEX
  8
0
 10
210
 20
154.454
 30
0.0
 40
0
 41
0
  0
VERTEX
  8
0
 10
210
 20
149.554
 30
0.0
 40
0
 41
0
  0
VERTEX
  8
0
 10
199.85
 20
159.704
 30
0.0
 40
0
 41
0
  0
VERTEX
  8
0
 10
199.85
 20
164.654
 30
0.0
 40
0
 41
0
  0
VERTEX
  8
0
 10
194.9
 20
164.654
 30
0.0
 40
0
 41
0
  0
VERTEX
  8
0
 10
75.1001
 20
284.454
 30
0.0
 40
0
 41
0
  0
SEQEND
 8
0
  0
POLYLINE
  8
0
 62
     0
 66
     1
 10
0
 20
0
 30
0.0
 70
     1
 40
0
 41
0
  0
VERTEX
  8
0
 10
75.1001
 20
268.544
 30
0.0
 40
0
 41
0
  0
VERTEX
  8
0
 10
75.1001
 20
273.494
 30
0.0
 40
0
 41
0
  0
VERTEX
  8
0
 10
70.1501
 20
273.494
 30
0.0
 40
0
 41
0
  0
VERTEX
  8
0
 10
60.0001
 20
283.644
 30
0.0
 40
0
 41
0
  0
VERTEX
  8
0
 10
64.9001
 20
283.644
 30
0.0
 40
0
 41
0
  0
VERTEX
  8
0
 10
64.9001
 20
280.794
 30
0.0
 40
0
 41
0
  0
VERTEX
  8
0
 10
70.1001
 20
280.794
 30
0.0
 40
0
 41
0
  0
VERTEX
  8
0
 10
70.1001
 20
283.644
 30
0.0
 40
0
 41
0
  0
VERTEX
  8
0
 10
75.91
 20
283.644
 30
0.0
 40
0
 41
0
  0
VERTEX
  8
0
 10
210
 20
149.554
 30
0.0
 40
0
 41
0
  0
VERTEX
  8
0
 10
210
 20
143.744
 30
0.0
 40
0
 41
0
  0
VERTEX
  8
0
 10
207.15
 20
143.744
 30
0.0
 40
0
 41
0
  0
VERTEX
  8
0
 10
207.15
 20
138.544
 30
0.0
 40
0
 41
0
  0
VERTEX
  8
0
 10
210
 20
138.544
 30
0.0
 40
0
 41
0
  0
VERTEX
  8
0
 10
210
 20
133.644
 30
0.0
 40
0
 41
0
  0
VERTEX
  8
0
 10
199.85
 20
143.794
 30
0.0
 40
0
 41
0
  0
VERTEX
  8
0
 10
199.85
 20
148.744
 30
0.0
 40
0
 41
0
  0
VERTEX
  8
0
 10
194.9
 20
148.744
 30
0.0
 40
0
 41
0
  0
VERTEX
  8
0
 10
75.1001
 20
268.544
 30
0.0
 40
0
 41
0
  0
SEQEND
 8
0
  0
POLYLINE
  8
0
 62
     0
 66
     1
 10
0
 20
0
 30
0.0
 70
     1
 40
0
 41
0
  0
VERTEX
  8
0
 10
60.0001
 20
231.644
 30
0.0
 40
0
 41
0
  0
VERTEX
  8
0
 10
60.0001
 20
248.144
 30
0.0
 40
0
 41
0
  0
VERTEX
  8
0
 10
95.5001
 20
248.144
 30
0.0
 40
0
 41
0
  0
VERTEX
  8
0
 10
95.5001
 20
231.644
 30
0.0
 40
0
 41
0
  0
VERTEX
  8
0
 10
86.0001
 20
226.144
 30
0.0
 40
0
 41
0
  0
VERTEX
  8
0
 10
69.5001
 20
226.144
 30
0.0
 40
0
 41
0
  0
VERTEX
  8
0
 10
60.0001
 20
231.644
 30
0.0
 40
0
 41
0
  0
SEQEND
 8
0
  0
POLYLINE
  8
0
 62
     0
 66
     1
 10
0
 20
0
 30
0.0
 70
     1
 40
0
 41
0
  0
VERTEX
  8
0
 10
88.0001
 20
231.644
 30
0.0
 40
0
 41
0
  0
VERTEX
  8
0
 10
88.0001
 20
237.144
 30
0.0
 40
0
 41
0
  0
VERTEX
  8
0
 10
67.5001
 20
237.144
 30
0.0
 40
0
 41
0
  0
VERTEX
  8
0
 10
67.5001
 20
231.644
 30
0.0
 40
0
 41
0
  0
VERTEX
  8
0
 10
75.0001
 20
231.644
 30
0.0
 40
0
 41
0
  0
VERTEX
  8
0
 10
75.0001
 20
228.894
 30
0.0
 40
0
 41
0
  0
VERTEX
  8
0
 10
80.5001
 20
228.894
 30
0.0
 40
0
 41
0
  0
VERTEX
  8
0
 10
80.5001
 20
231.644
 30
0.0
 40
0
 41
0
  0
VERTEX
  8
0
 10
88.0001
 20
231.644
 30
0.0
 40
0
 41
0
  0
SEQEND
 8
0
  0
POLYLINE
  8
0
 62
     0
 66
     1
 10
0
 20
0
 30
0.0
 70
     1
 40
0
 41
0
  0
VERTEX
  8
0
 10
60.0001
 20
209.644
 30
0.0
 40
0
 41
0
  0
VERTEX
  8
0
 10
60.0001
 20
226.144
 30
0.0
 40
0
 41
0
  0
VERTEX
  8
0
 10
95.5001
 20
226.144
 30
0.0
 40
0
 41
0
  0
VERTEX
  8
0
 10
95.5001
 20
209.644
 30
0.0
 40
0
 41
0
  0
VERTEX
  8
0
 10
86.0001
 20
204.144
 30
0.0
 40
0
 41
0
  0
VERTEX
  8
0
 10
69.5001
 20
204.144
 30
0.0
 40
0
 41
0
  0
VERTEX
  8
0
 10
60.0001
 20
209.644
 30
0.0
 40
0
 41
0
  0
SEQEND
 8
0
  0
POLYLINE
  8
0
 62
     0
 66
     1
 10
0
 20
0
 30
0.0
 70
     1
 40
0
 41
0
  0
VERTEX
  8
0
 10
88.0001
 20
209.644
 30
0.0
 40
0
 41
0
  0
VERTEX
  8
0
 10
88.0001
 20
215.144
 30
0.0
 40
0
 41
0
  0
VERTEX
  8
0
 10
67.5001
 20
215.144
 30
0.0
 40
0
 41
0
  0
VERTEX
  8
0
 10
67.5001
 20
209.644
 30
0.0
 40
0
 41
0
  0
VERTEX
  8
0
 10
75.0001
 20
209.644
 30
0.0
 40
0
 41
0
  0
VERTEX
  8
0
 10
75.0001
 20
206.894
 30
0.0
 40
0
 41
0
  0
VERTEX
  8
0
 10
80.5001
 20
206.894
 30
0.0
 40
0
 41
0
  0
VERTEX
  8
0
 10
80.5001
 20
209.644
 30
0.0
 40
0
 41
0
  0
VERTEX
  8
0
 10
88.0001
 20
209.644
 30
0.0
 40
0
 41
0
  0
SEQEND
 8
0
  0
POLYLINE
  8
0
 62
     0
 66
     1
 10
0
 20
0
 30
0.0
 70
     1
 40
0
 41
0
  0
VERTEX
  8
0
 10
60.0001
 20
187.644
 30
0.0
 40
0
 41
0
  0
VERTEX
  8
0
 10
60.0001
 20
204.144
 30
0.0
 40
0
 41
0
  0
VERTEX
  8
0
 10
95.5001
 20
204.144
 30
0.0
 40
0
 41
0
  0
VERTEX
  8
0
 10
95.5001
 20
187.644
 30
0.0
 40
0
 41
0
  0
VERTEX
  8
0
 10
86.0001
 20
182.144
 30
0.0
 40
0
 41
0
  0
VERTEX
  8
0
 10
69.5001
 20
182.144
 30
0.0
 40
0
 41
0
  0
VERTEX
  8
0
 10
60.0001
 20
187.644
 30
0.0
 40
0
 41
0
  0
SEQEND
 8
0
  0
POLYLINE
  8
0
 62
     0
 66
     1
 10
0
 20
0
 30
0.0
 70
     1
 40
0
 41
0
  0
VERTEX
  8
0
 10
88.0001
 20
187.644
 30
0.0
 40
0
 41
0
  0
VERTEX
  8
0
 10
88.0001
 20
193.144
 30
0.0
 40
0
 41
0
  0
VERTEX
  8
0
 10
67.5001
 20
193.144
 30
0.0
 40
0
 41
0
  0
VERTEX
  8
0
 10
67.5001
 20
187.644
 30
0.0
 40
0
 41
0
  0
VERTEX
  8
0
 10
75.0001
 20
187.644
 30
0.0
 40
0
 41
0
  0
VERTEX
  8
0
 10
75.0001
 20
184.894
 30
0.0
 40
0
 41
0
  0
VERTEX
  8
0
 10
80.5001
 20
184.894
 30
0.0
 40
0
 41
0
  0
VERTEX
  8
0
 10
80.5001
 20
187.644
 30
0.0
 40
0
 41
0
  0
VERTEX
  8
0
 10
88.0001
 20
187.644
 30
0.0
 40
0
 41
0
  0
SEQEND
 8
0
  0
POLYLINE
  8
0
 62
     0
 66
     1
 10
0
 20
0
 30
0.0
 70
     1
 40
0
 41
0
  0
VERTEX
  8
0
 10
60.0001
 20
165.644
 30
0.0
 40
0
 41
0
  0
VERTEX
  8
0
 10
60.0001
 20
182.144
 30
0.0
 40
0
 41
0
  0
VERTEX
  8
0
 10
95.5001
 20
182.144
 30
0.0
 40
0
 41
0
  0
VERTEX
  8
0
 10
95.5001
 20
165.644
 30
0.0
 40
0
 41
0
  0
VERTEX
  8
0
 10
86.0001
 20
160.144
 30
0.0
 40
0
 41
0
  0
VERTEX
  8
0
 10
69.5001
 20
160.144
 30
0.0
 40
0
 41
0
  0
VERTEX
  8
0
 10
60.0001
 20
165.644
 30
0.0
 40
0
 41
0
  0
SEQEND
 8
0
  0
POLYLINE
  8
0
 62
     0
 66
     1
 10
0
 20
0
 30
0.0
 70
     1
 40
0
 41
0
  0
VERTEX
  8
0
 10
88.0001
 20
165.644
 30
0.0
 40
0
 41
0
  0
VERTEX
  8
0
 10
88.0001
 20
171.144
 30
0.0
 40
0
 41
0
  0
VERTEX
  8
0
 10
67.5001
 20
171.144
 30
0.0
 40
0
 41
0
  0
VERTEX
  8
0
 10
67.5001
 20
165.644
 30
0.0
 40
0
 41
0
  0
VERTEX
  8
0
 10
75.0001
 20
165.644
 30
0.0
 40
0
 41
0
  0
VERTEX
  8
0
 10
75.0001
 20
162.894
 30
0.0
 40
0
 41
0
  0
VERTEX
  8
0
 10
80.5001
 20
162.894
 30
0.0
 40
0
 41
0
  0
VERTEX
  8
0
 10
80.5001
 20
165.644
 30
0.0
 40
0
 41
0
  0
VERTEX
  8
0
 10
88.0001
 20
165.644
 30
0.0
 40
0
 41
0
  0
SEQEND
 8
0
  0
POLYLINE
  8
0
 62
     0
 66
     1
 10
0
 20
0
 30
0.0
 70
     1
 40
0
 41
0
  0
VERTEX
  8
0
 10
60.0001
 20
143.644
 30
0.0
 40
0
 41
0
  0
VERTEX
  8
0
 10
60.0001
 20
160.144
 30
0.0
 40
0
 41
0
  0
VERTEX
  8
0
 10
95.5001
 20
160.144
 30
0.0
 40
0
 41
0
  0
VERTEX
  8
0
 10
95.5001
 20
143.644
 30
0.0
 40
0
 41
0
  0
VERTEX
  8
0
 10
86.0001
 20
138.144
 30
0.0
 40
0
 41
0
  0
VERTEX
  8
0
 10
69.5001
 20
138.144
 30
0.0
 40
0
 41
0
  0
VERTEX
  8
0
 10
60.0001
 20
143.644
 30
0.0
 40
0
 41
0
  0
SEQEND
 8
0
  0
POLYLINE
  8
0
 62
     0
 66
     1
 10
0
 20
0
 30
0.0
 70
     1
 40
0
 41
0
  0
VERTEX
  8
0
 10
88.0001
 20
143.644
 30
0.0
 40
0
 41
0
  0
VERTEX
  8
0
 10
88.0001
 20
149.144
 30
0.0
 40
0
 41
0
  0
VERTEX
  8
0
 10
67.5001
 20
149.144
 30
0.0
 40
0
 41
0
  0
VERTEX
  8
0
 10
67.5001
 20
143.644
 30
0.0
 40
0
 41
0
  0
VERTEX
  8
0
 10
75.0001
 20
143.644
 30
0.0
 40
0
 41
0
  0
VERTEX
  8
0
 10
75.0001
 20
140.894
 30
0.0
 40
0
 41
0
  0
VERTEX
  8
0
 10
80.5001
 20
140.894
 30
0.0
 40
0
 41
0
  0
VERTEX
  8
0
 10
80.5001
 20
143.644
 30
0.0
 40
0
 41
0
  0
VERTEX
  8
0
 10
88.0001
 20
143.644
 30
0.0
 40
0
 41
0
  0
SEQEND
 8
0
  0
POLYLINE
  8
0
 62
     0
 66
     1
 10
0
 20
0
 30
0.0
 70
     1
 40
0
 41
0
  0
VERTEX
  8
0
 10
60.0001
 20
121.644
 30
0.0
 40
0
 41
0
  0
VERTEX
  8
0
 10
60.0001
 20
138.144
 30
0.0
 40
0
 41
0
  0
VERTEX
  8
0
 10
95.5001
 20
138.144
 30
0.0
 40
0
 41
0
  0
VERTEX
  8
0
 10
95.5001
 20
121.644
 30
0.0
 40
0
 41
0
  0
VERTEX
  8
0
 10
86.0001
 20
116.144
 30
0.0
 40
0
 41
0
  0
VERTEX
  8
0
 10
69.5001
 20
116.144
 30
0.0
 40
0
 41
0
  0
VERTEX
  8
0
 10
60.0001
 20
121.644
 30
0.0
 40
0
 41
0
  0
SEQEND
 8
0
  0
POLYLINE
  8
0
 62
     0
 66
     1
 10
0
 20
0
 30
0.0
 70
     1
 40
0
 41
0
  0
VERTEX
  8
0
 10
88.0001
 20
121.644
 30
0.0
 40
0
 41
0
  0
VERTEX
  8
0
 10
88.0001
 20
127.144
 30
0.0
 40
0
 41
0
  0
VERTEX
  8
0
 10
67.5001
 20
127.144
 30
0.0
 40
0
 41
0
  0
VERTEX
  8
0
 10
67.5001
 20
121.644
 30
0.0
 40
0
 41
0
  0
VERTEX
  8
0
 10
75.0001
 20
121.644
 30
0.0
 40
0
 41
0
  0
VERTEX
  8
0
 10
75.0001
 20
118.894
 30
0.0
 40
0
 41
0
  0
VERTEX
  8
0
 10
80.5001
 20
118.894
 30
0.0
 40
0
 41
0
  0
VERTEX
  8
0
 10
80.5001
 20
121.644
 30
0.0
 40
0
 41
0
  0
VERTEX
  8
0
 10
88.0001
 20
121.644
 30
0.0
 40
0
 41
0
  0
SEQEND
 8
0
  0
POLYLINE
  8
0
 62
     0
 66
     1
 10
0
 20
0
 30
0.0
 70
     1
 40
0
 41
0
  0
VERTEX
  8
0
 10
60.0001
 20
99.6442
 30
0.0
 40
0
 41
0
  0
VERTEX
  8
0
 10
60.0001
 20
116.144
 30
0.0
 40
0
 41
0
  0
VERTEX
  8
0
 10
95.5001
 20
116.144
 30
0.0
 40
0
 41
0
  0
VERTEX
  8
0
 10
95.5001
 20
99.6442
 30
0.0
 40
0
 41
0
  0
VERTEX
  8
0
 10
86.0001
 20
94.1442
 30
0.0
 40
0
 41
0
  0
VERTEX
  8
0
 10
69.5001
 20
94.1442
 30
0.0
 40
0
 41
0
  0
VERTEX
  8
0
 10
60.0001
 20
99.6442
 30
0.0
 40
0
 41
0
  0
SEQEND
 8
0
  0
POLYLINE
  8
0
 62
     0
 66
     1
 10
0
 20
0
 30
0.0
 70
     1
 40
0
 41
0
  0
VERTEX
  8
0
 10
88.0001
 20
99.6442
 30
0.0
 40
0
 41
0
  0
VERTEX
  8
0
 10
88.0001
 20
105.144
 30
0.0
 40
0
 41
0
  0
VERTEX
  8
0
 10
67.5001
 20
105.144
 30
0.0
 40
0
 41
0
  0
VERTEX
  8
0
 10
67.5001
 20
99.6442
 30
0.0
 40
0
 41
0
  0
VERTEX
  8
0
 10
75.0001
 20
99.6442
 30
0.0
 40
0
 41
0
  0
VERTEX
  8
0
 10
75.0001
 20
96.8942
 30
0.0
 40
0
 41
0
  0
VERTEX
  8
0
 10
80.5001
 20
96.8942
 30
0.0
 40
0
 41
0
  0
VERTEX
  8
0
 10
80.5001
 20
99.6442
 30
0.0
 40
0
 41
0
  0
VERTEX
  8
0
 10
88.0001
 20
99.6442
 30
0.0
 40
0
 41
0
  0
SEQEND
 8
0
  0
POLYLINE
  8
0
 62
     0
 66
     1
 10
0
 20
0
 30
0.0
 70
     1
 40
0
 41
0
  0
VERTEX
  8
0
 10
60.0001
 20
77.6442
 30
0.0
 40
0
 41
0
  0
VERTEX
  8
0
 10
60.0001
 20
94.1442
 30
0.0
 40
0
 41
0
  0
VERTEX
  8
0
 10
95.5001
 20
94.1442
 30
0.0
 40
0
 41
0
  0
VERTEX
  8
0
 10
95.5001
 20
77.6442
 30
0.0
 40
0
 41
0
  0
VERTEX
  8
0
 10
86.0001
 20
72.144
 30
0.0
 40
0
 41
0
  0
VERTEX
  8
0
 10
69.5001
 20
72.144
 30
0.0
 40
0
 41
0
  0
VERTEX
  8
0
 10
60.0001
 20
77.6442
 30
0.0
 40
0
 41
0
  0
SEQEND
 8
0
  0
POLYLINE
  8
0
 62
     0
 66
     1
 10
0
 20
0
 30
0.0
 70
     1
 40
0
 41
0
  0
VERTEX
  8
0
 10
88.0001
 20
77.6442
 30
0.0
 40
0
 41
0
  0
VERTEX
  8
0
 10
88.0001
 20
83.1442
 30
0.0
 40
0
 41
0
  0
VERTEX
  8
0
 10
67.5001
 20
83.1442
 30
0.0
 40
0
 41
0
  0
VERTEX
  8
0
 10
67.5001
 20
77.6442
 30
0.0
 40
0
 41
0
  0
VERTEX
  8
0
 10
75.0001
 20
77.6442
 30
0.0
 40
0
 41
0
  0
VERTEX
  8
0
 10
75.0001
 20
74.8942
 30
0.0
 40
0
 41
0
  0
VERTEX
  8
0
 10
80.5001
 20
74.8942
 30
0.0
 40
0
 41
0
  0
VERTEX
  8
0
 10
80.5001
 20
77.6442
 30
0.0
 40
0
 41
0
  0
VERTEX
  8
0
 10
88.0001
 20
77.6442
 30
0.0
 40
0
 41
0
  0
SEQEND
 8
0
  0
ENDSEC
  0
EOF
